%TF.GenerationSoftware,KiCad,Pcbnew,(6.0.5)*%
%TF.CreationDate,2023-03-29T12:06:55+08:00*%
%TF.ProjectId,ergo60,6572676f-3630-42e6-9b69-6361645f7063,rev?*%
%TF.SameCoordinates,PX3b7922bPYeed2ae*%
%TF.FileFunction,Profile,NP*%
%FSLAX46Y46*%
G04 Gerber Fmt 4.6, Leading zero omitted, Abs format (unit mm)*
G04 Created by KiCad (PCBNEW (6.0.5)) date 2023-03-29 12:06:55*
%MOMM*%
%LPD*%
G01*
G04 APERTURE LIST*
%TA.AperFunction,Profile*%
%ADD10C,0.200000*%
%TD*%
G04 APERTURE END LIST*
D10*
X302342992Y11734253D02*
X214613640Y4058931D01*
X194104250Y-95890807D02*
X215519670Y-91728068D01*
X127805986Y-9515038D02*
X125149092Y-9515036D01*
X304509703Y9916175D02*
G75*
G03*
X302342992Y11734253I-1992358J-174273D01*
G01*
X227741737Y-89352340D02*
X310553063Y-82107284D01*
X54046368Y4305931D02*
X-34655227Y12066315D01*
X-42865297Y-81775221D02*
X40918267Y-89105337D01*
X138918484Y1752116D02*
X127805989Y1752117D01*
X102013565Y-100981058D02*
X106921700Y-101935102D01*
X310553059Y-82107237D02*
G75*
G03*
X312371140Y-79940581I-174014J1992139D01*
G01*
X312371140Y-79940581D02*
X304509693Y9916174D01*
X40918267Y-89105337D02*
X102013565Y-100981058D01*
X-36821926Y10248242D02*
X-44683376Y-79608524D01*
X-44683349Y-79608526D02*
G75*
G03*
X-42865297Y-81775221I1992194J-174472D01*
G01*
X106921700Y-101935102D02*
X125149093Y-105478149D01*
X144781636Y-105478146D02*
X194104250Y-95890807D01*
X144781637Y-9515038D02*
X138918485Y-9515038D01*
X214613640Y4058931D02*
X175866884Y-3472675D01*
X175866884Y-3472675D02*
X144781637Y-9515038D01*
X125149093Y-105478149D02*
X144781636Y-105478146D01*
X215519670Y-91728068D02*
X227741737Y-89352340D01*
X138918485Y-9515038D02*
X138918484Y1752116D01*
X125149092Y-9515036D02*
X54046368Y4305931D01*
X-34655231Y12066274D02*
G75*
G03*
X-36821926Y10248242I-174324J-1992372D01*
G01*
X127805989Y1752117D02*
X127805986Y-9515038D01*
M02*
