M48
; DRILL file {KiCad (6.0.5)} date Wed Mar 29 12:06:57 2023
; FORMAT={-:-/ absolute / inch / decimal}
; #@! TF.CreationDate,2023-03-29T12:06:57+08:00
; #@! TF.GenerationSoftware,Kicad,Pcbnew,(6.0.5)
; #@! TF.FileFunction,Plated,1,2,PTH
FMAT,2
INCH
; #@! TA.AperFunction,Plated,PTH,ViaDrill
T1C0.0118
; #@! TA.AperFunction,Plated,PTH,ComponentDrill
T2C0.0138
; #@! TA.AperFunction,Plated,PTH,ComponentDrill
T3C0.0354
; #@! TA.AperFunction,Plated,PTH,ComponentDrill
T4C0.0394
; #@! TA.AperFunction,Plated,PTH,ComponentDrill
T5C0.1200
%
G90
G05
T1
X-0.976Y-2.1896
X-0.8977Y-2.2403
X-0.654Y-1.454
X-0.5945Y-0.2387
X-0.5916Y-1.5335
X-0.5628Y-0.3777
X-0.5304Y-0.8341
X-0.4047Y-0.8433
X0.8318Y-0.2453
X1.1464Y-0.17
X1.2812Y-0.3125
X1.5529Y-0.2662
X2.3087Y-0.4387
X3.0374Y-0.587
X3.7553Y-0.7424
X3.8633Y-0.792
X4.2711Y-2.2035
X4.6299Y-2.985
X4.631Y-3.726
X4.6529Y-1.094
X4.6574Y-1.4326
X4.7114Y-2.3494
X4.7118Y-3.0698
X4.7118Y-2.9775
X4.758Y-2.2254
X4.7601Y-2.983
X4.7604Y-3.0426
X4.7727Y-2.1001
X4.8208Y-1.432
X4.8321Y-2.2282
X4.8743Y-1.7993
X4.8964Y-0.8575
X4.902Y-1.4634
X5.0008Y-2.3699
X5.0214Y-2.0854
X5.0321Y-1.9248
X5.0621Y-0.7654
X5.0675Y-2.2332
X5.1423Y-1.7403
X5.1442Y-0.3448
X5.1686Y-2.4925
X5.173Y-1.7319
X5.196Y-1.4318
X5.2096Y-0.9554
X5.2283Y-0.3802
X5.269Y-2.754
X5.269Y-2.9244
X5.2723Y-3.7558
X5.2802Y-1.6051
X5.3044Y-0.7654
X5.3134Y-0.383
X5.3136Y-2.8048
X5.3483Y-0.27
X5.5409Y-3.0833
X5.5471Y-3.208
X5.5649Y-3.1755
X5.565Y-3.112
X5.6073Y-1.094
X5.6462Y-3.2567
X5.837Y-0.9559
X6.1252Y-1.7562
X6.1646Y-2.2766
X6.4671Y-3.2134
X6.8477Y-1.5425
X7.076Y-2.9718
X7.4794Y-3.0166
X7.5813Y-1.3862
X8.3134Y-1.2218
X8.3258Y-2.7306
X8.696Y-3.3594
X8.8658Y-2.779
X9.2722Y-1.0442
X9.8258Y-1.0413
X10.4556Y-2.2758
X10.5804Y-0.9548
X10.6309Y-2.9843
X10.6601Y-1.6047
X10.815Y-3.0631
X10.8561Y-1.3182
X10.8642Y-1.4676
X10.9093Y-1.5832
X10.9178Y-1.7556
X11.0147Y-0.791
X11.0161Y-2.5319
X11.053Y-0.7835
X11.2996Y-2.5764
X11.5036Y-0.8566
T2
X5.0489Y-1.9618
X5.0489Y-2.012
X5.0489Y-2.0622
X5.0991Y-1.9618
X5.0991Y-2.012
X5.0991Y-2.0622
X5.1493Y-1.9618
X5.1493Y-2.012
X5.1493Y-2.0622
T4
X5.4549Y-2.6799
X5.4549Y-2.7799
X5.4549Y-2.8799
X5.4549Y-2.9799
X5.4549Y-3.0799
X5.9002Y-1.6135
X6.0002Y-1.6135
X11.0898Y-2.8633
X11.0985Y-2.9629
X11.1073Y-3.0625
X11.116Y-3.1621
T5
X-1.4248Y-1.6571
X-1.2848Y-0.9165
X-1.1671Y-1.5793
X-1.1447Y-0.1759
X-1.027Y-0.8387
X-0.8869Y-0.0981
X-0.5329Y-2.8645
X-0.2752Y-2.7866
X-0.1407Y0.1127
X-0.1407Y-1.393
X-0.094Y-0.6443
X-0.094Y-2.15
X0.1171Y0.1905
X0.1171Y-1.3152
X0.1638Y-0.5664
X0.1638Y-2.0722
X0.401Y-2.9462
X0.6064Y0.0473
X0.6588Y-2.8683
X0.8399Y-0.726
X0.8642Y0.1252
X0.8866Y-1.4829
X1.0977Y-0.6481
X1.1201Y-2.2562
X1.1444Y-1.4051
X1.3601Y0.0567
X1.3779Y-2.1784
X1.6179Y0.1345
X1.6435Y-0.7595
X1.6845Y-1.5315
X1.908Y-0.709
X1.9095Y-2.3392
X1.949Y-1.481
X2.1354Y-0.091
X2.174Y-2.2888
X2.3798Y-0.9026
X2.3999Y-0.0406
X2.4207Y-1.6746
X2.5636Y-3.2308
X2.6443Y-0.8521
X2.6457Y-2.4823
X2.6852Y-1.6241
X2.8281Y-3.1803
X2.8717Y-0.2342
X2.9102Y-2.4319
X3.116Y-1.0457
X3.1361Y-0.1837
X3.1569Y-1.8177
X3.3805Y-0.9952
X3.3819Y-2.6255
X3.4214Y-1.7672
X3.6079Y-0.3773
X3.6464Y-2.575
X3.8521Y-3.4809
X3.8522Y-1.1888
X3.8724Y-0.3268
X3.8932Y-1.9608
X4.1166Y-3.4305
X4.1167Y-1.1383
X4.1182Y-2.7686
X4.1576Y-1.9103
X4.3441Y-0.5204
X4.3826Y-2.7181
X4.6086Y-0.4699
X5.7972Y-1.3789
X5.8993Y-2.8871
X6.0235Y-1.233
X6.059Y-0.5639
X6.1243Y-2.0793
X6.1256Y-2.7412
X6.2853Y-0.4181
X6.3507Y-1.9334
X6.5334Y-1.2358
X6.6355Y-2.744
X6.6866Y-3.4981
X6.7597Y-1.0899
X6.7952Y-0.4208
X6.8605Y-1.9362
X6.8619Y-2.5981
X6.9129Y-3.3522
X7.0215Y-0.275
X7.0869Y-1.7903
X7.2696Y-1.0926
X7.3718Y-2.6009
X7.4959Y-0.9468
X7.5314Y-0.2777
X7.5968Y-1.7931
X7.5981Y-2.455
X7.7577Y-0.1319
X7.8231Y-1.6472
X8.0058Y-0.9495
X8.108Y-2.4578
X8.1591Y-3.2119
X8.2322Y-0.8037
X8.2676Y-0.1346
X8.333Y-1.65
X8.3343Y-2.3119
X8.3854Y-3.066
X8.494Y0.0113
X8.5593Y-1.5041
X8.742Y-0.8064
X8.8958Y-2.315
X8.9684Y-0.6606
X9.0293Y0.0305
X9.0359Y-3.0557
X9.1293Y-1.5417
X9.1361Y-2.1936
X9.2697Y0.1519
X9.2762Y-2.9343
X9.3696Y-1.4203
X9.5495Y-0.7521
X9.6429Y-2.2497
X9.783Y0.0212
X9.7899Y-0.6307
X9.8764Y-1.4764
X9.8832Y-2.1283
X10.0234Y0.1426
X10.1167Y-1.355
X10.2967Y-0.6867
X10.537Y-0.5653
X10.6702Y-2.1598
X10.9037Y0.1192
X10.9106Y-2.0384
X11.0905Y-1.3702
X11.1441Y0.2406
X11.2306Y-0.605
X11.3308Y-1.2488
X11.4709Y-0.4836
X11.6695Y-2.8252
X11.6976Y-2.0699
X11.9099Y-2.7038
X11.9379Y-1.9485
T3
G00X5.0745Y0.0068
M15
G01X5.0745Y-0.005
M16
G05
G00X5.0745Y-0.148
M15
G01X5.0745Y-0.1794
M16
G05
G00X5.4265Y0.0068
M15
G01X5.4265Y-0.005
M16
G05
G00X5.4265Y-0.148
M15
G01X5.4265Y-0.1794
M16
G05
T0
M30
