M48
; DRILL file {KiCad (6.0.5)} date Wed Mar 29 12:06:57 2023
; FORMAT={-:-/ absolute / inch / decimal}
; #@! TF.CreationDate,2023-03-29T12:06:57+08:00
; #@! TF.GenerationSoftware,Kicad,Pcbnew,(6.0.5)
; #@! TF.FileFunction,NonPlated,1,2,NPTH
FMAT,2
INCH
; #@! TA.AperFunction,NonPlated,NPTH,ComponentDrill
T1C0.0256
; #@! TA.AperFunction,NonPlated,NPTH,ComponentDrill
T2C0.0670
; #@! TA.AperFunction,NonPlated,NPTH,ComponentDrill
T3C0.1200
; #@! TA.AperFunction,NonPlated,NPTH,ComponentDrill
T4C0.1570
%
G90
G05
T1
X5.1367Y-0.1428
X5.3643Y-0.1428
T2
X-1.4834Y-1.7524
X-1.3433Y-1.0118
X-1.2032Y-0.2712
X-1.0849Y-1.7872
X-0.9448Y-1.0466
X-0.8047Y-0.306
X-0.5915Y-2.9597
X-0.1992Y0.0174
X-0.1992Y-1.4883
X-0.193Y-2.9946
X-0.1525Y-0.7395
X-0.1525Y-2.2453
X0.1992Y-0.0174
X0.1993Y-1.5232
X0.2459Y-0.7744
X0.246Y-2.2801
X0.3425Y-3.0414
X0.5479Y-0.0479
X0.741Y-3.0763
X0.7814Y-0.8212
X0.8281Y-1.5782
X0.9464Y-0.0828
X1.0616Y-2.3515
X1.1799Y-0.8561
X1.2266Y-1.613
X1.3016Y-0.0386
X1.4601Y-2.3863
X1.5754Y-0.8481
X1.6163Y-1.6201
X1.7001Y-0.0735
X1.8413Y-2.4279
X1.968Y-0.9244
X2.009Y-1.6964
X2.0673Y-0.1797
X2.234Y-2.5042
X2.3116Y-0.9912
X2.3526Y-1.7632
X2.4599Y-0.256
X2.4954Y-3.3194
X2.5776Y-2.571
X2.7043Y-1.0675
X2.7452Y-1.8395
X2.8035Y-0.3228
X2.8881Y-3.3957
X2.9702Y-2.6473
X3.0478Y-1.1343
X3.0888Y-1.9063
X3.1961Y-0.3991
X3.3138Y-2.7141
X3.4405Y-1.2106
X3.4814Y-1.9826
X3.5397Y-0.4659
X3.7064Y-2.7904
X3.7839Y-3.5696
X3.784Y-1.2774
X3.825Y-2.0494
X3.9324Y-0.5422
X4.05Y-2.8572
X4.1766Y-3.6459
X4.1767Y-1.3537
X4.2176Y-2.1257
X4.2759Y-0.609
X4.4426Y-2.9335
X4.6686Y-0.6853
X5.7672Y-1.4866
X5.8693Y-2.9948
X6.029Y-0.6716
X6.0943Y-2.187
X6.1598Y-1.4102
X6.262Y-2.9185
X6.4216Y-0.5953
X6.487Y-2.1107
X6.5034Y-1.3435
X6.6055Y-2.8517
X6.6566Y-3.6058
X6.7652Y-0.5285
X6.8305Y-2.0439
X6.896Y-1.2671
X6.9982Y-2.7754
X7.0493Y-3.5295
X7.1579Y-0.4522
X7.2232Y-1.9676
X7.2396Y-1.2004
X7.3418Y-2.7086
X7.5014Y-0.3854
X7.5668Y-1.9008
X7.6323Y-1.124
X7.7344Y-2.6322
X7.8941Y-0.3091
X7.9594Y-1.8245
X7.9758Y-1.0572
X8.078Y-2.5655
X8.1291Y-3.3196
X8.2376Y-0.2423
X8.303Y-1.7577
X8.3685Y-0.9809
X8.4706Y-2.4891
X8.5217Y-3.2432
X8.6303Y-0.166
X8.6956Y-1.6814
X8.712Y-0.9141
X8.8547Y-2.419
X8.9882Y-0.0735
X8.9948Y-3.1596
X9.0882Y-1.6457
X9.1047Y-0.8378
X9.2531Y-2.3842
X9.3867Y-0.0386
X9.3933Y-3.1248
X9.4866Y-1.6109
X9.5084Y-0.8561
X9.6018Y-2.3537
X9.7419Y-0.0828
X9.8353Y-1.5804
X9.9069Y-0.8212
X10.0003Y-2.3188
X10.1404Y-0.0479
X10.2338Y-1.5455
X10.2556Y-0.7907
X10.6291Y-2.2638
X10.6541Y-0.7559
X10.8627Y0.0153
X11.0276Y-2.2289
X11.0494Y-1.4741
X11.1895Y-0.709
X11.2611Y0.0501
X11.4479Y-1.4393
X11.588Y-0.6742
X11.6284Y-2.9292
X11.6565Y-2.1739
X12.0269Y-2.8943
X12.0549Y-2.139
T3
X-0.3975Y-1.9478
X0.5389Y-2.0297
X3.4664Y-3.788
X4.3891Y-3.9674
X6.4441Y-3.9273
X7.3668Y-3.7479
X10.5697Y0.2657
X10.7565Y-1.2237
X11.5061Y0.3476
X11.6929Y-1.1418
T4
X-1.2841Y-1.7698
X-1.1441Y-1.0292
X-1.004Y-0.2886
X-0.4498Y-2.5455
X-0.3922Y-2.9771
X0.0Y0.0
X0.0Y-1.5057
X0.0467Y-0.757
X0.0467Y-2.2627
X0.4866Y-2.6274
X0.5417Y-3.0589
X0.7471Y-0.0654
X0.9806Y-0.8387
X1.0273Y-1.5956
X1.2608Y-2.3689
X1.5008Y-0.056
X1.7717Y-0.8863
X1.8127Y-1.6583
X2.0377Y-2.466
X2.2636Y-0.2178
X2.5079Y-1.0294
X2.5489Y-1.8014
X2.6918Y-3.3576
X2.7739Y-2.6091
X2.9998Y-0.3609
X3.2441Y-1.1725
X3.2851Y-1.9445
X3.5101Y-2.7522
X3.5809Y-3.199
X3.736Y-0.504
X3.9802Y-3.6077
X3.9804Y-1.3156
X4.0213Y-2.0876
X4.2463Y-2.8953
X4.4723Y-0.6472
X4.5036Y-3.3784
X5.9635Y-1.4484
X6.0656Y-2.9566
X6.2253Y-0.6335
X6.2907Y-2.1488
X6.3296Y-3.3383
X6.6997Y-1.3053
X6.8019Y-2.8135
X6.8529Y-3.5676
X6.9615Y-0.4904
X7.0269Y-2.0057
X7.2523Y-3.1589
X7.4359Y-1.1622
X7.5381Y-2.6704
X7.6977Y-0.3473
X7.7631Y-1.8626
X8.1722Y-1.0191
X8.2743Y-2.5273
X8.3254Y-3.2814
X8.434Y-0.2042
X8.4993Y-1.7195
X8.9084Y-0.876
X9.0539Y-2.4016
X9.1875Y-0.056
X9.194Y-3.1422
X9.2874Y-1.6283
X9.7077Y-0.8387
X9.8011Y-2.3362
X9.9412Y-0.0654
X10.0345Y-1.5629
X10.4548Y-0.7733
X10.622Y-0.332
X10.8088Y-1.8214
X10.8284Y-2.2463
X11.0619Y0.0327
X11.2487Y-1.4567
X11.3888Y-0.6916
X11.5584Y-0.2501
X11.7452Y-1.7395
X11.8277Y-2.9118
X11.8557Y-2.1565
T0
M30
