%TF.GenerationSoftware,KiCad,Pcbnew,(6.0.5)*%
%TF.CreationDate,2023-03-29T12:06:55+08:00*%
%TF.ProjectId,ergo60,6572676f-3630-42e6-9b69-6361645f7063,rev?*%
%TF.SameCoordinates,PX3b7922bPYeed2ae*%
%TF.FileFunction,Legend,Top*%
%TF.FilePolarity,Positive*%
%FSLAX46Y46*%
G04 Gerber Fmt 4.6, Leading zero omitted, Abs format (unit mm)*
G04 Created by KiCad (PCBNEW (6.0.5)) date 2023-03-29 12:06:55*
%MOMM*%
%LPD*%
G01*
G04 APERTURE LIST*
G04 Aperture macros list*
%AMHorizOval*
0 Thick line with rounded ends*
0 $1 width*
0 $2 $3 position (X,Y) of the first rounded end (center of the circle)*
0 $4 $5 position (X,Y) of the second rounded end (center of the circle)*
0 Add line between two ends*
20,1,$1,$2,$3,$4,$5,0*
0 Add two circle primitives to create the rounded ends*
1,1,$1,$2,$3*
1,1,$1,$4,$5*%
%AMRotRect*
0 Rectangle, with rotation*
0 The origin of the aperture is its center*
0 $1 length*
0 $2 width*
0 $3 Rotation angle, in degrees counterclockwise*
0 Add horizontal line*
21,1,$1,$2,0,0,$3*%
G04 Aperture macros list end*
%ADD10C,0.150000*%
%ADD11C,0.040000*%
%ADD12RotRect,1.700000X1.700000X5.000000*%
%ADD13HorizOval,1.700000X0.000000X0.000000X0.000000X0.000000X0*%
%ADD14C,3.987800*%
%ADD15C,1.701800*%
%ADD16R,1.700000X1.700000*%
%ADD17O,1.700000X1.700000*%
%ADD18C,3.048000*%
%ADD19C,0.650000*%
%ADD20O,1.500000X2.300000*%
%ADD21O,1.400000X1.800000*%
%ADD22O,1.400000X2.300000*%
G04 APERTURE END LIST*
D10*
%TO.C,OLED1*%
X247159891Y-81417889D02*
X247143290Y-81228138D01*
X247182428Y-81129112D01*
X247269003Y-81025936D01*
X247454604Y-80961897D01*
X247786669Y-80932845D01*
X247980570Y-80963682D01*
X248083747Y-81050257D01*
X248139485Y-81140982D01*
X248156086Y-81330734D01*
X248116949Y-81429759D01*
X248030374Y-81532936D01*
X247844773Y-81596975D01*
X247512708Y-81626027D01*
X247318806Y-81595190D01*
X247215630Y-81508615D01*
X247159891Y-81417889D01*
X248039878Y-80002474D02*
X248081381Y-80476852D01*
X247085186Y-80564008D01*
X247489010Y-79716062D02*
X247459958Y-79383997D01*
X247969324Y-79196031D02*
X248010827Y-79670409D01*
X247014632Y-79757565D01*
X246973129Y-79283186D01*
X247931971Y-78769090D02*
X246935777Y-78856246D01*
X246915025Y-78619057D01*
X246950012Y-78472593D01*
X247036587Y-78369417D01*
X247127313Y-78313678D01*
X247312914Y-78249639D01*
X247455227Y-78237188D01*
X247649129Y-78268025D01*
X247748155Y-78307162D01*
X247851331Y-78393738D01*
X247911220Y-78531901D01*
X247931971Y-78769090D01*
X247799163Y-77251079D02*
X247848966Y-77820333D01*
X247824064Y-77535706D02*
X246827870Y-77622862D01*
X246978484Y-77705287D01*
X247081660Y-77791862D01*
X247137398Y-77882587D01*
X280734986Y-81373601D02*
X280761226Y-81263753D01*
X280745662Y-81085861D01*
X280703859Y-81017817D01*
X280665168Y-80985352D01*
X280590898Y-80955999D01*
X280519741Y-80962224D01*
X280451697Y-81004028D01*
X280419232Y-81042719D01*
X280389879Y-81116989D01*
X280366751Y-81262415D01*
X280337398Y-81336684D01*
X280304932Y-81375375D01*
X280236888Y-81417179D01*
X280165732Y-81423405D01*
X280091462Y-81394052D01*
X280052771Y-81361586D01*
X280010967Y-81293542D01*
X279995404Y-81115650D01*
X280021644Y-81005802D01*
X280705197Y-80623343D02*
X279958051Y-80688709D01*
X279942488Y-80510817D01*
X279968728Y-80400970D01*
X280033659Y-80323587D01*
X280101703Y-80281784D01*
X280240904Y-80233754D01*
X280347639Y-80224416D01*
X280493066Y-80247544D01*
X280567335Y-80276897D01*
X280644717Y-80341828D01*
X280689634Y-80445451D01*
X280705197Y-80623343D01*
X280429473Y-79930451D02*
X280398346Y-79574667D01*
X280649169Y-79982932D02*
X279880234Y-79799250D01*
X280605591Y-79484834D01*
X280512053Y-78825477D02*
X280538294Y-78715629D01*
X280522730Y-78537737D01*
X280480926Y-78469693D01*
X280442235Y-78437228D01*
X280367966Y-78407875D01*
X280296809Y-78414100D01*
X280228765Y-78455904D01*
X280196299Y-78494595D01*
X280166946Y-78568864D01*
X280143819Y-78714291D01*
X280114466Y-78788560D01*
X280082000Y-78827251D01*
X280013956Y-78869055D01*
X279942799Y-78875280D01*
X279868530Y-78845927D01*
X279829839Y-78813462D01*
X279788035Y-78745418D01*
X279772471Y-78567526D01*
X279798712Y-78457678D01*
X280373756Y-77654503D02*
X280412447Y-77686969D01*
X280457363Y-77790591D01*
X280463589Y-77861748D01*
X280437348Y-77971596D01*
X280372417Y-78048978D01*
X280304373Y-78090782D01*
X280165172Y-78138811D01*
X280058437Y-78148149D01*
X279913011Y-78125022D01*
X279838741Y-78095669D01*
X279761359Y-78030737D01*
X279716443Y-77927115D01*
X279710217Y-77855958D01*
X279736458Y-77746110D01*
X279768923Y-77707419D01*
X280385771Y-76972288D02*
X280416898Y-77328072D01*
X279669752Y-77393439D01*
X260618764Y-77845085D02*
X260808516Y-77828484D01*
X260907542Y-77867621D01*
X261010718Y-77954196D01*
X261074757Y-78139797D01*
X261103809Y-78471862D01*
X261072972Y-78665764D01*
X260986397Y-78768940D01*
X260895671Y-78824678D01*
X260705920Y-78841280D01*
X260606894Y-78802142D01*
X260503718Y-78715567D01*
X260439679Y-78529966D01*
X260410627Y-78197901D01*
X260441464Y-78003999D01*
X260528039Y-77900823D01*
X260618764Y-77845085D01*
X262034180Y-78725072D02*
X261559801Y-78766575D01*
X261472645Y-77770380D01*
X262320592Y-78174204D02*
X262652656Y-78145152D01*
X262840623Y-78654517D02*
X262366245Y-78696020D01*
X262279089Y-77699825D01*
X262753467Y-77658323D01*
X263267564Y-78617165D02*
X263180408Y-77620970D01*
X263417597Y-77600219D01*
X263564061Y-77635206D01*
X263667237Y-77721781D01*
X263722975Y-77812506D01*
X263787014Y-77998107D01*
X263799465Y-78140421D01*
X263768628Y-78334323D01*
X263729491Y-78433349D01*
X263642916Y-78536525D01*
X263504753Y-78596413D01*
X263267564Y-78617165D01*
X265022764Y-78463605D02*
X264935608Y-77467410D01*
X265315111Y-77434208D01*
X265414137Y-77473345D01*
X265465725Y-77516633D01*
X265521463Y-77607358D01*
X265533914Y-77749672D01*
X265494777Y-77848698D01*
X265451489Y-77900286D01*
X265360764Y-77956024D01*
X264981261Y-77989226D01*
X266445899Y-78339096D02*
X266400246Y-77817280D01*
X266344508Y-77726555D01*
X266245482Y-77687417D01*
X266055730Y-77704019D01*
X265965005Y-77759757D01*
X266441749Y-78291659D02*
X266351023Y-78347397D01*
X266113834Y-78368148D01*
X266014808Y-78329011D01*
X265959070Y-78238286D01*
X265950769Y-78143410D01*
X265989907Y-78044384D01*
X266080632Y-77988646D01*
X266317821Y-77967894D01*
X266408547Y-77912156D01*
X266862174Y-77633464D02*
X266920277Y-78297594D01*
X266870474Y-77728340D02*
X266913762Y-77676752D01*
X267004487Y-77621013D01*
X267146801Y-77608562D01*
X267245827Y-77647700D01*
X267301565Y-77738425D01*
X267347218Y-78260241D01*
X268196949Y-78138099D02*
X268106224Y-78193837D01*
X267916472Y-78210438D01*
X267817446Y-78171301D01*
X267761708Y-78080575D01*
X267728506Y-77701073D01*
X267767643Y-77602047D01*
X267858368Y-77546308D01*
X268048120Y-77529707D01*
X268147146Y-77568844D01*
X268202884Y-77659570D01*
X268211185Y-77754446D01*
X267745107Y-77890824D01*
X268817791Y-78131583D02*
X268718765Y-78092446D01*
X268663027Y-78001720D01*
X268588322Y-77147839D01*
X279588449Y-76464132D02*
X280313806Y-76149717D01*
X279544871Y-75966035D01*
X280161719Y-75230904D02*
X280200410Y-75263370D01*
X280245326Y-75366992D01*
X280251552Y-75438149D01*
X280225312Y-75547997D01*
X280160380Y-75625379D01*
X280092336Y-75667183D01*
X279953135Y-75715212D01*
X279846400Y-75724550D01*
X279700974Y-75701423D01*
X279626704Y-75672070D01*
X279549322Y-75607138D01*
X279504406Y-75503516D01*
X279498180Y-75432359D01*
X279524421Y-75322511D01*
X279556886Y-75283820D01*
X280096352Y-74483758D02*
X280135043Y-74516224D01*
X280179960Y-74619846D01*
X280186185Y-74691003D01*
X280159945Y-74800851D01*
X280095013Y-74878233D01*
X280026969Y-74920037D01*
X279887769Y-74968066D01*
X279781033Y-74977404D01*
X279635607Y-74954277D01*
X279561338Y-74924924D01*
X279483956Y-74859992D01*
X279439039Y-74756370D01*
X279432814Y-74685213D01*
X279459054Y-74575365D01*
X279491520Y-74536674D01*
X279365299Y-73503744D02*
X279335946Y-73578013D01*
X279345284Y-73684749D01*
X279390200Y-73788371D01*
X279467583Y-73853302D01*
X279541852Y-73882655D01*
X279687278Y-73905783D01*
X279794013Y-73896445D01*
X279933214Y-73848416D01*
X280001258Y-73806612D01*
X280066190Y-73729230D01*
X280092430Y-73619382D01*
X280086205Y-73548225D01*
X280041288Y-73444603D01*
X280002597Y-73412137D01*
X279753548Y-73433926D01*
X279765999Y-73576239D01*
X280045739Y-73085706D02*
X279298593Y-73151073D01*
X280008387Y-72658766D01*
X279261241Y-72724132D01*
X279977260Y-72302982D02*
X279230114Y-72368348D01*
X279214550Y-72190457D01*
X279240791Y-72080609D01*
X279305722Y-72003227D01*
X279373766Y-71961423D01*
X279512967Y-71913394D01*
X279619702Y-71904055D01*
X279765128Y-71927183D01*
X279839398Y-71956536D01*
X279916780Y-72021467D01*
X279961696Y-72125090D01*
X279977260Y-72302982D01*
D11*
X248616162Y-73421969D02*
X249662031Y-85376305D01*
X246175350Y-85681350D02*
X284030748Y-82369432D01*
X282984880Y-70415096D02*
X245129481Y-73727014D01*
X284030748Y-82369432D02*
X282984880Y-70415096D01*
X245129481Y-73727014D02*
X246175350Y-85681350D01*
X278003906Y-70850874D02*
X279049775Y-82805211D01*
%TD*%
%LPC*%
D12*
%TO.C,OLED1*%
X281681459Y-72727496D03*
D13*
X281902834Y-75257830D03*
X282124210Y-77788165D03*
X282345585Y-80318499D03*
%TD*%
D14*
%TO.C,MX21*%
X101101394Y-33415642D03*
D15*
X96114728Y-32446332D03*
X106088060Y-34384952D03*
%TD*%
D16*
%TO.C,J2*%
X138555697Y-78230087D03*
D17*
X138555697Y-75690087D03*
X138555697Y-73150087D03*
X138555697Y-70610087D03*
X138555697Y-68070087D03*
%TD*%
D15*
%TO.C,MX39*%
X192195895Y-48280189D03*
X202169227Y-46341569D03*
D14*
X197182561Y-47310879D03*
%TD*%
%TO.C,MX13*%
X252505754Y-1660317D03*
D15*
X257566423Y-1217566D03*
X247445085Y-2103068D03*
%TD*%
D14*
%TO.C,MX38*%
X178482563Y-50945796D03*
D15*
X183469229Y-49976486D03*
X173495897Y-51915106D03*
%TD*%
D14*
%TO.C,MX24*%
X188872651Y-29519616D03*
D15*
X183885985Y-30488926D03*
X193859317Y-28550306D03*
%TD*%
D14*
%TO.C,MX23*%
X170172651Y-33154525D03*
D15*
X165185985Y-34123835D03*
X175159317Y-32185215D03*
%TD*%
%TO.C,MX64*%
X216451547Y-82378473D03*
D14*
X211464881Y-83347783D03*
D15*
X206478215Y-84317093D03*
%TD*%
%TO.C,MX17*%
X19847523Y-20859202D03*
X29968861Y-21744704D03*
D14*
X24908192Y-21301953D03*
%TD*%
%TO.C,MX59*%
X-9962335Y-75619481D03*
D15*
X-15023004Y-75176730D03*
X-4901666Y-76062232D03*
%TD*%
%TO.C,MX34*%
X69728148Y-46723851D03*
X59754816Y-44785231D03*
D14*
X64741482Y-45754541D03*
%TD*%
D15*
%TO.C,MX15*%
X-30561594Y-6887598D03*
D14*
X-25500925Y-7330349D03*
D15*
X-20440256Y-7773100D03*
%TD*%
%TO.C,MX55*%
X235029989Y-60557555D03*
X224908651Y-61443057D03*
D14*
X229969320Y-61000306D03*
%TD*%
D18*
%TO.C,MX45*%
X-10097051Y-49473243D03*
D14*
X-11425305Y-64655250D03*
X12359840Y-66736180D03*
D15*
X6247407Y-57914879D03*
X-3873931Y-57029377D03*
D18*
X13688093Y-51554173D03*
D14*
X1186738Y-57472128D03*
%TD*%
D15*
%TO.C,MX4*%
X52508830Y-4563654D03*
X62482162Y-6502274D03*
D14*
X57495496Y-5532964D03*
%TD*%
%TO.C,MX20*%
X82401395Y-29780733D03*
D15*
X77414729Y-28811423D03*
X87388061Y-30750043D03*
%TD*%
%TO.C,MX41*%
X230839337Y-41801420D03*
D14*
X235900006Y-41358669D03*
D15*
X240960675Y-40915918D03*
%TD*%
%TO.C,MX44*%
X-27556391Y-45396052D03*
D14*
X-32617060Y-44953301D03*
D15*
X-37677729Y-44510550D03*
%TD*%
D14*
%TO.C,MX27*%
X246575071Y-21301956D03*
D15*
X251635740Y-20859205D03*
X241514402Y-21744707D03*
%TD*%
D14*
%TO.C,MX51*%
X154067478Y-75098161D03*
D15*
X159054144Y-74128851D03*
X149080812Y-76067471D03*
%TD*%
D18*
%TO.C,MX62*%
X111484165Y-100770960D03*
X88046835Y-96215204D03*
D15*
X96111635Y-90667106D03*
X106084967Y-92605726D03*
D14*
X90954764Y-81255206D03*
X114392095Y-85810961D03*
X101098301Y-91636416D03*
%TD*%
D15*
%TO.C,MX2*%
X24038178Y-2103067D03*
X13916840Y-1217565D03*
D14*
X18977509Y-1660316D03*
%TD*%
D15*
%TO.C,MX25*%
X202585984Y-26854015D03*
D14*
X207572650Y-25884705D03*
D15*
X212559316Y-24915395D03*
%TD*%
D14*
%TO.C,MX6*%
X94895492Y-12802783D03*
D15*
X99882158Y-13772093D03*
X89908826Y-11833473D03*
%TD*%
D14*
%TO.C,MX58*%
X301134980Y-54774118D03*
D15*
X306195649Y-54331367D03*
X296074311Y-55216869D03*
%TD*%
D14*
%TO.C,MX5*%
X76195498Y-9167869D03*
D15*
X81182164Y-10137179D03*
X71208832Y-8198559D03*
%TD*%
%TO.C,MX19*%
X68688068Y-27115128D03*
X58714736Y-25176508D03*
D14*
X63701402Y-26145818D03*
%TD*%
D15*
%TO.C,MX9*%
X171836079Y-13424641D03*
X181809411Y-11486021D03*
D14*
X176822745Y-12455331D03*
%TD*%
D15*
%TO.C,MX42*%
X259938188Y-39255603D03*
D14*
X254877519Y-39698354D03*
D15*
X249816850Y-40141105D03*
%TD*%
%TO.C,MX56*%
X243886161Y-59782741D03*
D14*
X248946830Y-59339990D03*
D15*
X254007499Y-58897239D03*
%TD*%
%TO.C,MX14*%
X275911354Y387406D03*
D18*
X268470668Y6748112D03*
D15*
X286032692Y1272908D03*
D18*
X292255812Y8829042D03*
D14*
X280972023Y830157D03*
X269798921Y-8433895D03*
X293584066Y-6352965D03*
%TD*%
%TO.C,MX29*%
X289274464Y-17566244D03*
D15*
X284213795Y-18008995D03*
X294335133Y-17123493D03*
%TD*%
D14*
%TO.C,MX36*%
X102141482Y-53024364D03*
D15*
X97154816Y-52055054D03*
X107128148Y-53993674D03*
%TD*%
D14*
%TO.C,MX37*%
X159782564Y-54580709D03*
D15*
X164769230Y-53611399D03*
X154795898Y-55550019D03*
%TD*%
%TO.C,MX12*%
X238422884Y-980133D03*
X228301546Y-1865635D03*
D14*
X233362215Y-1422884D03*
%TD*%
%TO.C,MX35*%
X83441481Y-49389455D03*
D15*
X88428147Y-50358765D03*
X78454815Y-48420145D03*
%TD*%
D14*
%TO.C,MX57*%
X275040905Y-57057054D03*
D15*
X280101574Y-56614303D03*
X269980236Y-57499805D03*
%TD*%
D14*
%TO.C,MX7*%
X113595491Y-16437694D03*
D15*
X118582157Y-17407004D03*
X108608825Y-15468384D03*
%TD*%
D14*
%TO.C,MX48*%
X70456571Y-66271999D03*
D15*
X75443237Y-67241309D03*
X65469905Y-65302689D03*
%TD*%
%TO.C,MX22*%
X146485991Y-37758747D03*
D14*
X151472657Y-36789437D03*
D15*
X156459323Y-35820127D03*
%TD*%
D14*
%TO.C,MX60*%
X13760415Y-77694831D03*
D15*
X18821084Y-78137582D03*
X8699746Y-77252080D03*
%TD*%
%TO.C,MX18*%
X40014733Y-21541597D03*
X49988065Y-23480217D03*
D14*
X45001399Y-22510907D03*
%TD*%
%TO.C,MX43*%
X274542866Y-46264388D03*
X285715968Y-37000336D03*
D18*
X273214613Y-31082381D03*
X296999757Y-29001451D03*
D14*
X298328011Y-44183458D03*
D15*
X280655299Y-37443087D03*
X290776637Y-36557585D03*
%TD*%
%TO.C,MX28*%
X260491911Y-20084389D03*
D14*
X265552580Y-19641638D03*
D15*
X270613249Y-19198887D03*
%TD*%
D14*
%TO.C,MX61*%
X68370772Y-85282509D03*
D15*
X63384106Y-84313199D03*
X73357438Y-86251819D03*
%TD*%
%TO.C,MX33*%
X51028154Y-43088942D03*
X41054822Y-41150322D03*
D14*
X46041488Y-42119632D03*
%TD*%
%TO.C,MX26*%
X226272647Y-22249789D03*
D15*
X221285981Y-23219099D03*
X231259313Y-21280479D03*
%TD*%
%TO.C,MX49*%
X94143236Y-70876218D03*
D14*
X89156570Y-69906908D03*
D15*
X84169904Y-68937598D03*
%TD*%
D14*
%TO.C,MX30*%
X-29058989Y-26141819D03*
D15*
X-23998320Y-26584570D03*
X-34119658Y-25699068D03*
%TD*%
D14*
%TO.C,MX10*%
X195522739Y-8820417D03*
D15*
X200509405Y-7851107D03*
X190536073Y-9789727D03*
%TD*%
D14*
%TO.C,MX63*%
X174064889Y-90617610D03*
X160771095Y-84792155D03*
D18*
X187116355Y-95196398D03*
D15*
X179051555Y-89648300D03*
X169078223Y-91586920D03*
D14*
X184208426Y-80236400D03*
D18*
X163679025Y-99752154D03*
%TD*%
D15*
%TO.C,MX54*%
X215154138Y-63224117D03*
X205180806Y-65162737D03*
D14*
X210167472Y-64193427D03*
%TD*%
D15*
%TO.C,MX66*%
X295362437Y-74401917D03*
D14*
X300423106Y-73959166D03*
D15*
X305483775Y-73516415D03*
%TD*%
D19*
%TO.C,J3*%
X136252240Y-3628008D03*
X130472240Y-3628008D03*
D20*
X137832240Y-4158008D03*
D21*
X128892240Y21992D03*
D22*
X128892240Y-4158008D03*
D21*
X137832240Y21992D03*
%TD*%
D16*
%TO.C,SW1*%
X152405590Y-40981888D03*
D17*
X149865590Y-40981888D03*
%TD*%
D14*
%TO.C,MX16*%
X1186308Y-19226559D03*
D15*
X6246977Y-19669310D03*
X-3874361Y-18783808D03*
%TD*%
%TO.C,MX65*%
X238589012Y-79369465D03*
D14*
X233528343Y-79812216D03*
D15*
X228467674Y-80254967D03*
%TD*%
%TO.C,MX50*%
X102869902Y-72572511D03*
X112843234Y-74511131D03*
D14*
X107856568Y-73541821D03*
%TD*%
D15*
%TO.C,MX40*%
X220869226Y-42706659D03*
X210895894Y-44645279D03*
D14*
X215882560Y-43675969D03*
%TD*%
D15*
%TO.C,MX1*%
X5060669Y-442751D03*
D14*
X0Y0D03*
D15*
X-5060669Y442751D03*
%TD*%
%TO.C,MX8*%
X163109411Y-15120931D03*
X153136079Y-17059551D03*
D14*
X158122745Y-16090241D03*
%TD*%
D15*
%TO.C,MX47*%
X46769910Y-61667773D03*
D14*
X51756576Y-62637083D03*
D15*
X56743242Y-63606393D03*
%TD*%
%TO.C,MX11*%
X219209401Y-4216192D03*
X209236069Y-6154812D03*
D14*
X214222735Y-5185502D03*
%TD*%
%TO.C,MX52*%
X172767477Y-71463246D03*
D15*
X177754143Y-70493936D03*
X167780811Y-72432556D03*
%TD*%
D14*
%TO.C,MX32*%
X26094499Y-40528513D03*
D15*
X21033830Y-40085762D03*
X31155168Y-40971264D03*
%TD*%
D14*
%TO.C,MX53*%
X191467474Y-67828336D03*
D15*
X186480808Y-68797646D03*
X196454140Y-66859026D03*
%TD*%
%TO.C,MX3*%
X33060374Y-980129D03*
X43181712Y-1865631D03*
D14*
X38121043Y-1422880D03*
%TD*%
%TO.C,MX31*%
X427Y-38245578D03*
D15*
X5061096Y-38688329D03*
X-5060242Y-37802827D03*
%TD*%
%TO.C,MX46*%
X26964520Y-59727395D03*
D14*
X32025189Y-60170146D03*
D15*
X37085858Y-60612897D03*
%TD*%
M02*
