%TF.GenerationSoftware,KiCad,Pcbnew,(6.0.5)*%
%TF.CreationDate,2023-03-29T12:06:55+08:00*%
%TF.ProjectId,ergo60,6572676f-3630-42e6-9b69-6361645f7063,rev?*%
%TF.SameCoordinates,PX3b7922bPYeed2ae*%
%TF.FileFunction,Soldermask,Bot*%
%TF.FilePolarity,Negative*%
%FSLAX46Y46*%
G04 Gerber Fmt 4.6, Leading zero omitted, Abs format (unit mm)*
G04 Created by KiCad (PCBNEW (6.0.5)) date 2023-03-29 12:06:55*
%MOMM*%
%LPD*%
G01*
G04 APERTURE LIST*
G04 Aperture macros list*
%AMRoundRect*
0 Rectangle with rounded corners*
0 $1 Rounding radius*
0 $2 $3 $4 $5 $6 $7 $8 $9 X,Y pos of 4 corners*
0 Add a 4 corners polygon primitive as box body*
4,1,4,$2,$3,$4,$5,$6,$7,$8,$9,$2,$3,0*
0 Add four circle primitives for the rounded corners*
1,1,$1+$1,$2,$3*
1,1,$1+$1,$4,$5*
1,1,$1+$1,$6,$7*
1,1,$1+$1,$8,$9*
0 Add four rect primitives between the rounded corners*
20,1,$1+$1,$2,$3,$4,$5,0*
20,1,$1+$1,$4,$5,$6,$7,0*
20,1,$1+$1,$6,$7,$8,$9,0*
20,1,$1+$1,$8,$9,$2,$3,0*%
%AMHorizOval*
0 Thick line with rounded ends*
0 $1 width*
0 $2 $3 position (X,Y) of the first rounded end (center of the circle)*
0 $4 $5 position (X,Y) of the second rounded end (center of the circle)*
0 Add line between two ends*
20,1,$1,$2,$3,$4,$5,0*
0 Add two circle primitives to create the rounded ends*
1,1,$1,$2,$3*
1,1,$1,$4,$5*%
%AMRotRect*
0 Rectangle, with rotation*
0 The origin of the aperture is its center*
0 $1 length*
0 $2 width*
0 $3 Rotation angle, in degrees counterclockwise*
0 Add horizontal line*
21,1,$1,$2,0,0,$3*%
G04 Aperture macros list end*
%ADD10RotRect,1.700000X1.700000X5.000000*%
%ADD11HorizOval,1.700000X0.000000X0.000000X0.000000X0.000000X0*%
%ADD12RoundRect,0.250000X0.391272X-0.178624X0.295867X0.312190X-0.391272X0.178624X-0.295867X-0.312190X0*%
%ADD13C,3.987800*%
%ADD14C,1.701800*%
%ADD15RoundRect,0.254000X1.191195X0.803471X-0.803471X1.191195X-1.191195X-0.803471X0.803471X-1.191195X0*%
%ADD16R,1.700000X1.700000*%
%ADD17O,1.700000X1.700000*%
%ADD18RotRect,1.400000X1.200000X45.000000*%
%ADD19RoundRect,0.250000X0.295867X-0.312190X0.391272X0.178624X-0.295867X0.312190X-0.391272X-0.178624X0*%
%ADD20RoundRect,0.140000X0.140000X0.170000X-0.140000X0.170000X-0.140000X-0.170000X0.140000X-0.170000X0*%
%ADD21RoundRect,0.254000X0.803471X1.191195X-1.191195X0.803471X-0.803471X-1.191195X1.191195X-0.803471X0*%
%ADD22RoundRect,0.254000X0.923584X1.100684X-1.100684X0.923584X-0.923584X-1.100684X1.100684X-0.923584X0*%
%ADD23RoundRect,0.140000X0.170000X-0.140000X0.170000X0.140000X-0.170000X0.140000X-0.170000X-0.140000X0*%
%ADD24RoundRect,0.225000X0.202475X-0.268568X0.288339X0.173164X-0.202475X0.268568X-0.288339X-0.173164X0*%
%ADD25RoundRect,0.250000X0.370457X-0.218544X0.326879X0.279553X-0.370457X0.218544X-0.326879X-0.279553X0*%
%ADD26RotRect,1.600000X1.200000X349.000000*%
%ADD27RoundRect,0.225000X-0.268659X0.202355X-0.229439X-0.245933X0.268659X-0.202355X0.229439X0.245933X0*%
%ADD28RoundRect,0.250000X0.326879X-0.279553X0.370457X0.218544X-0.326879X0.279553X-0.370457X-0.218544X0*%
%ADD29RoundRect,0.225000X0.288339X-0.173164X0.202475X0.268568X-0.288339X0.173164X-0.202475X-0.268568X0*%
%ADD30RoundRect,0.200000X-0.275000X0.200000X-0.275000X-0.200000X0.275000X-0.200000X0.275000X0.200000X0*%
%ADD31RoundRect,0.254000X1.100684X0.923584X-0.923584X1.100684X-1.100684X-0.923584X0.923584X-1.100684X0*%
%ADD32RoundRect,0.140000X-0.140000X-0.170000X0.140000X-0.170000X0.140000X0.170000X-0.140000X0.170000X0*%
%ADD33RoundRect,0.225000X0.245933X0.229439X-0.202355X0.268659X-0.245933X-0.229439X0.202355X-0.268659X0*%
%ADD34RoundRect,0.150000X0.650000X0.150000X-0.650000X0.150000X-0.650000X-0.150000X0.650000X-0.150000X0*%
%ADD35RoundRect,0.225000X-0.288339X0.173164X-0.202475X-0.268568X0.288339X-0.173164X0.202475X0.268568X0*%
%ADD36C,3.048000*%
%ADD37RotRect,1.600000X1.200000X191.000000*%
%ADD38RotRect,1.600000X1.200000X95.000000*%
%ADD39RoundRect,0.150000X0.475000X0.150000X-0.475000X0.150000X-0.475000X-0.150000X0.475000X-0.150000X0*%
%ADD40RoundRect,0.135000X0.135000X0.185000X-0.135000X0.185000X-0.135000X-0.185000X0.135000X-0.185000X0*%
%ADD41RotRect,1.600000X1.200000X5.000000*%
%ADD42RotRect,1.600000X1.200000X355.000000*%
%ADD43RoundRect,0.135000X0.185000X-0.135000X0.185000X0.135000X-0.185000X0.135000X-0.185000X-0.135000X0*%
%ADD44RotRect,1.600000X1.200000X185.000000*%
%ADD45RoundRect,0.140000X-0.021213X0.219203X-0.219203X0.021213X0.021213X-0.219203X0.219203X-0.021213X0*%
%ADD46RoundRect,0.250000X-0.471166X0.222281X-0.425409X-0.300721X0.471166X-0.222281X0.425409X0.300721X0*%
%ADD47RoundRect,0.225000X0.268659X-0.202355X0.229439X0.245933X-0.268659X0.202355X-0.229439X-0.245933X0*%
%ADD48RoundRect,0.225000X-0.202475X0.268568X-0.288339X-0.173164X0.202475X-0.268568X0.288339X0.173164X0*%
%ADD49RotRect,1.600000X1.200000X175.000000*%
%ADD50RoundRect,0.050000X0.387500X0.050000X-0.387500X0.050000X-0.387500X-0.050000X0.387500X-0.050000X0*%
%ADD51RoundRect,0.050000X0.050000X0.387500X-0.050000X0.387500X-0.050000X-0.387500X0.050000X-0.387500X0*%
%ADD52RoundRect,0.144000X1.456000X1.456000X-1.456000X1.456000X-1.456000X-1.456000X1.456000X-1.456000X0*%
%ADD53RotRect,1.600000X1.200000X265.000000*%
%ADD54RoundRect,0.150000X-0.150000X0.512500X-0.150000X-0.512500X0.150000X-0.512500X0.150000X0.512500X0*%
%ADD55RoundRect,0.140000X0.021213X-0.219203X0.219203X-0.021213X-0.021213X0.219203X-0.219203X0.021213X0*%
%ADD56RoundRect,0.225000X-0.225112X0.249900X-0.272149X-0.197635X0.225112X-0.249900X0.272149X0.197635X0*%
%ADD57RotRect,1.600000X1.200000X169.000000*%
%ADD58RoundRect,0.140000X0.219203X0.021213X0.021213X0.219203X-0.219203X-0.021213X-0.021213X-0.219203X0*%
%ADD59RoundRect,0.225000X0.229439X-0.245933X0.268659X0.202355X-0.229439X0.245933X-0.268659X-0.202355X0*%
%ADD60RoundRect,0.225000X-0.229439X0.245933X-0.268659X-0.202355X0.229439X-0.245933X0.268659X0.202355X0*%
%ADD61RotRect,1.600000X1.200000X11.000000*%
%ADD62RoundRect,0.250000X0.262500X0.450000X-0.262500X0.450000X-0.262500X-0.450000X0.262500X-0.450000X0*%
%ADD63RoundRect,0.250000X0.471166X-0.222281X0.425409X0.300721X-0.471166X0.222281X-0.425409X-0.300721X0*%
%ADD64RoundRect,0.135000X0.035355X-0.226274X0.226274X-0.035355X-0.035355X0.226274X-0.226274X0.035355X0*%
%ADD65RoundRect,0.135000X-0.135000X-0.185000X0.135000X-0.185000X0.135000X0.185000X-0.135000X0.185000X0*%
%ADD66C,0.650000*%
%ADD67R,0.600000X1.450000*%
%ADD68R,0.300000X1.450000*%
%ADD69O,1.500000X2.300000*%
%ADD70O,1.400000X1.800000*%
%ADD71O,1.400000X2.300000*%
%ADD72RoundRect,0.150000X0.150000X-0.587500X0.150000X0.587500X-0.150000X0.587500X-0.150000X-0.587500X0*%
%ADD73RoundRect,0.225000X-0.202355X-0.268659X0.245933X-0.229439X0.202355X0.268659X-0.245933X0.229439X0*%
%ADD74R,1.200000X1.800000*%
%ADD75R,0.600000X1.550000*%
%ADD76RoundRect,0.250000X-0.625000X0.375000X-0.625000X-0.375000X0.625000X-0.375000X0.625000X0.375000X0*%
%ADD77RoundRect,0.225000X0.225112X-0.249900X0.272149X0.197635X-0.225112X0.249900X-0.272149X-0.197635X0*%
G04 APERTURE END LIST*
D10*
%TO.C,OLED1*%
X281681459Y-72727496D03*
D11*
X281902834Y-75257830D03*
X282124210Y-77788165D03*
X282345585Y-80318499D03*
%TD*%
D12*
%TO.C,D26*%
X229855606Y-24042822D03*
X229225936Y-20803452D03*
%TD*%
%TO.C,D38*%
X182065520Y-52738829D03*
X181435850Y-49499459D03*
%TD*%
D13*
%TO.C,MX21*%
X101101394Y-33415642D03*
D14*
X96114728Y-32446332D03*
X106088060Y-34384952D03*
D15*
X108054703Y-29592148D03*
X94355383Y-29516810D03*
%TD*%
D16*
%TO.C,J2*%
X138555697Y-78230087D03*
D17*
X138555697Y-75690087D03*
X138555697Y-73150087D03*
X138555697Y-70610087D03*
X138555697Y-68070087D03*
%TD*%
D18*
%TO.C,Y1*%
X130047484Y-60591541D03*
X131603119Y-59035906D03*
X132805200Y-60237987D03*
X131249565Y-61793622D03*
%TD*%
D19*
%TO.C,D20*%
X85051772Y-32785402D03*
X85681442Y-29546032D03*
%TD*%
D20*
%TO.C,C9*%
X128006694Y-59231613D03*
X127046694Y-59231613D03*
%TD*%
D14*
%TO.C,MX39*%
X192195895Y-48280189D03*
X202169227Y-46341569D03*
D13*
X197182561Y-47310879D03*
D21*
X202197251Y-41161041D03*
X189467240Y-46223045D03*
%TD*%
D13*
%TO.C,MX13*%
X252505754Y-1660317D03*
D14*
X257566423Y-1217566D03*
X247445085Y-2103068D03*
D22*
X258135806Y3931653D03*
X244946408Y228028D03*
%TD*%
D19*
%TO.C,D35*%
X86091858Y-52394123D03*
X86721528Y-49154753D03*
%TD*%
D13*
%TO.C,MX38*%
X178482563Y-50945796D03*
D14*
X183469229Y-49976486D03*
X173495897Y-51915106D03*
D21*
X183497253Y-44795958D03*
X170767242Y-49857962D03*
%TD*%
D23*
%TO.C,C3*%
X131803886Y-43240111D03*
X131803886Y-42280111D03*
%TD*%
D13*
%TO.C,MX24*%
X188872651Y-29519616D03*
D14*
X183885985Y-30488926D03*
X193859317Y-28550306D03*
D21*
X193887341Y-23369778D03*
X181157330Y-28431782D03*
%TD*%
D20*
%TO.C,C2*%
X128006692Y-58211615D03*
X127046692Y-58211615D03*
%TD*%
D13*
%TO.C,MX23*%
X170172651Y-33154525D03*
D14*
X165185985Y-34123835D03*
X175159317Y-32185215D03*
D21*
X175187341Y-27004687D03*
X162457330Y-32066691D03*
%TD*%
D24*
%TO.C,LC9*%
X55270068Y-13945331D03*
X55565822Y-12423809D03*
%TD*%
D19*
%TO.C,D48*%
X73106951Y-69276667D03*
X73736621Y-66037297D03*
%TD*%
D14*
%TO.C,MX64*%
X216451547Y-82378473D03*
D13*
X211464881Y-83347783D03*
D14*
X206478215Y-84317093D03*
D21*
X216479571Y-77197945D03*
X203749560Y-82259949D03*
%TD*%
D20*
%TO.C,C11*%
X124899250Y-46782584D03*
X123939250Y-46782584D03*
%TD*%
D12*
%TO.C,D24*%
X192455608Y-31312651D03*
X191825938Y-28073281D03*
%TD*%
D25*
%TO.C,D13*%
X255881667Y-3818047D03*
X255594053Y-530605D03*
%TD*%
D26*
%TO.C,L2*%
X71931925Y-75428667D03*
X72542514Y-72287460D03*
X77352487Y-73222425D03*
X76741898Y-76363632D03*
%TD*%
D27*
%TO.C,LC19*%
X247156184Y-66067728D03*
X247291276Y-67611830D03*
%TD*%
D28*
%TO.C,D46*%
X34975122Y-62881316D03*
X35262736Y-59593874D03*
%TD*%
D29*
%TO.C,LC12*%
X153546474Y-25625809D03*
X153250720Y-24104287D03*
%TD*%
D28*
%TO.C,D60*%
X16710347Y-80406001D03*
X16997961Y-77118559D03*
%TD*%
D23*
%TO.C,C1*%
X126803887Y-45952617D03*
X126803887Y-44992617D03*
%TD*%
D30*
%TO.C,R3*%
X127494504Y-41796514D03*
X127494504Y-43446514D03*
%TD*%
D12*
%TO.C,D52*%
X176350432Y-73256280D03*
X175720762Y-70016910D03*
%TD*%
D25*
%TO.C,D43*%
X289091875Y-39158068D03*
X288804261Y-35870626D03*
%TD*%
D14*
%TO.C,MX17*%
X19847523Y-20859202D03*
X29968861Y-21744704D03*
D13*
X24908192Y-21301953D03*
D31*
X31423746Y-16772585D03*
X17791597Y-18129629D03*
%TD*%
D19*
%TO.C,D18*%
X47651775Y-25515576D03*
X48281445Y-22276206D03*
%TD*%
D24*
%TO.C,LC10*%
X88176628Y-20331267D03*
X88472382Y-18809745D03*
%TD*%
D13*
%TO.C,MX59*%
X-9962335Y-75619481D03*
D14*
X-15023004Y-75176730D03*
X-4901666Y-76062232D03*
D31*
X-3446781Y-71090113D03*
X-17078930Y-72447157D03*
%TD*%
D28*
%TO.C,D15*%
X-22550990Y-10041512D03*
X-22263376Y-6754070D03*
%TD*%
D14*
%TO.C,MX34*%
X69728148Y-46723851D03*
X59754816Y-44785231D03*
D13*
X64741482Y-45754541D03*
D15*
X71694791Y-41931047D03*
X57995471Y-41855709D03*
%TD*%
D32*
%TO.C,C8*%
X135853348Y-52329753D03*
X136813348Y-52329753D03*
%TD*%
D33*
%TO.C,LC6*%
X-12726134Y-30100436D03*
X-14270236Y-29965344D03*
%TD*%
D19*
%TO.C,D34*%
X67391863Y-48759215D03*
X68021533Y-45519845D03*
%TD*%
D28*
%TO.C,D59*%
X-7012402Y-78330652D03*
X-6724788Y-75043210D03*
%TD*%
%TO.C,D45*%
X4136668Y-60183300D03*
X4424282Y-56895858D03*
%TD*%
D34*
%TO.C,U4*%
X143116435Y-40763725D03*
X143116435Y-42033725D03*
X143116435Y-43303725D03*
X143116435Y-44573725D03*
X135916435Y-44573725D03*
X135916435Y-43303725D03*
X135916435Y-42033725D03*
X135916435Y-40763725D03*
%TD*%
D14*
%TO.C,MX15*%
X-30561594Y-6887598D03*
D13*
X-25500925Y-7330349D03*
D14*
X-20440256Y-7773100D03*
D31*
X-18985371Y-2800981D03*
X-32617520Y-4158025D03*
%TD*%
D14*
%TO.C,MX55*%
X235029989Y-60557555D03*
X224908651Y-61443057D03*
D13*
X229969320Y-61000306D03*
D22*
X235599372Y-55408336D03*
X222409974Y-59111961D03*
%TD*%
D35*
%TO.C,LC22*%
X143728525Y-84289858D03*
X144024279Y-85811380D03*
%TD*%
D32*
%TO.C,C18*%
X120847182Y-62760968D03*
X121807182Y-62760968D03*
%TD*%
D19*
%TO.C,D47*%
X54406955Y-65641759D03*
X55036625Y-62402389D03*
%TD*%
D12*
%TO.C,D51*%
X157650434Y-76891192D03*
X157020764Y-73651822D03*
%TD*%
D36*
%TO.C,MX45*%
X-10097051Y-49473243D03*
D13*
X-11425305Y-64655250D03*
X12359840Y-66736180D03*
D14*
X6247407Y-57914879D03*
X-3873931Y-57029377D03*
D36*
X13688093Y-51554173D03*
D13*
X1186738Y-57472128D03*
D31*
X7702292Y-52942760D03*
X-5929857Y-54299804D03*
%TD*%
D37*
%TO.C,L13*%
X183345498Y-18155453D03*
X183956087Y-21296660D03*
X179146114Y-22231625D03*
X178535525Y-19090418D03*
%TD*%
D14*
%TO.C,MX4*%
X52508830Y-4563654D03*
X62482162Y-6502274D03*
D13*
X57495496Y-5532964D03*
D15*
X64448805Y-1709470D03*
X50749485Y-1634132D03*
%TD*%
D13*
%TO.C,MX20*%
X82401395Y-29780733D03*
D14*
X77414729Y-28811423D03*
X87388061Y-30750043D03*
D15*
X89354704Y-25957239D03*
X75655384Y-25881901D03*
%TD*%
D19*
%TO.C,D19*%
X66351776Y-29150492D03*
X66981446Y-25911122D03*
%TD*%
D38*
%TO.C,L17*%
X275017988Y-40070659D03*
X271830165Y-40349557D03*
X271403102Y-35468203D03*
X274590925Y-35189305D03*
%TD*%
D14*
%TO.C,MX41*%
X230839337Y-41801420D03*
D13*
X235900006Y-41358669D03*
D14*
X240960675Y-40915918D03*
D22*
X241530058Y-35766699D03*
X228340660Y-39470324D03*
%TD*%
D26*
%TO.C,L1*%
X105269426Y-82546249D03*
X105880015Y-79405042D03*
X110689988Y-80340007D03*
X110079399Y-83481214D03*
%TD*%
D39*
%TO.C,U3*%
X134998460Y-10937804D03*
X134998460Y-11887804D03*
X135073460Y-12837804D03*
X132648460Y-12837804D03*
X132648460Y-11887804D03*
X132648460Y-10937804D03*
%TD*%
D14*
%TO.C,MX44*%
X-27556391Y-45396052D03*
D13*
X-32617060Y-44953301D03*
D14*
X-37677729Y-44510550D03*
D31*
X-26101506Y-40423933D03*
X-39733655Y-41780977D03*
%TD*%
D20*
%TO.C,C14*%
X124704208Y-42289936D03*
X123744208Y-42289936D03*
%TD*%
D40*
%TO.C,R7*%
X135975987Y-8444254D03*
X134955987Y-8444254D03*
%TD*%
D13*
%TO.C,MX27*%
X246575071Y-21301956D03*
D14*
X251635740Y-20859205D03*
X241514402Y-21744707D03*
D22*
X252205123Y-15709986D03*
X239015725Y-19413611D03*
%TD*%
D25*
%TO.C,D56*%
X252322734Y-61497719D03*
X252035120Y-58210277D03*
%TD*%
D32*
%TO.C,C13*%
X131361117Y-31628992D03*
X132321117Y-31628992D03*
%TD*%
D41*
%TO.C,L18*%
X283993110Y-65657233D03*
X283714212Y-62469410D03*
X288595566Y-62042347D03*
X288874464Y-65230170D03*
%TD*%
D42*
%TO.C,L3*%
X38619915Y-69687379D03*
X38898813Y-66499556D03*
X43780167Y-66926619D03*
X43501269Y-70114442D03*
%TD*%
D43*
%TO.C,R1*%
X135377169Y-74396268D03*
X135377169Y-73376268D03*
%TD*%
D23*
%TO.C,C5*%
X125755797Y-45955969D03*
X125755797Y-44995969D03*
%TD*%
D19*
%TO.C,D33*%
X48691866Y-45124302D03*
X49321536Y-41884932D03*
%TD*%
D37*
%TO.C,L12*%
X150740365Y-24505453D03*
X151350954Y-27646660D03*
X146540981Y-28581625D03*
X145930392Y-25440418D03*
%TD*%
D13*
%TO.C,MX51*%
X154067478Y-75098161D03*
D14*
X159054144Y-74128851D03*
X149080812Y-76067471D03*
D21*
X159082168Y-68948323D03*
X146352157Y-74010327D03*
%TD*%
D25*
%TO.C,D28*%
X268928484Y-21799368D03*
X268640870Y-18511926D03*
%TD*%
D36*
%TO.C,MX62*%
X111484165Y-100770960D03*
X88046835Y-96215204D03*
D14*
X96111635Y-90667106D03*
X106084967Y-92605726D03*
D13*
X90954764Y-81255206D03*
X114392095Y-85810961D03*
X101098301Y-91636416D03*
D15*
X108051610Y-87812922D03*
X94352290Y-87737584D03*
%TD*%
D25*
%TO.C,D29*%
X292650373Y-19723971D03*
X292362759Y-16436529D03*
%TD*%
%TO.C,D41*%
X239275913Y-43516398D03*
X238988299Y-40228956D03*
%TD*%
D19*
%TO.C,D21*%
X103751771Y-36420311D03*
X104381441Y-33180941D03*
%TD*%
%TO.C,D36*%
X104791859Y-56029033D03*
X105421529Y-52789663D03*
%TD*%
D25*
%TO.C,D55*%
X233345225Y-63158033D03*
X233057611Y-59870591D03*
%TD*%
D44*
%TO.C,L16*%
X280658065Y-4892348D03*
X280936963Y-8080171D03*
X276055609Y-8507234D03*
X275776711Y-5319411D03*
%TD*%
D14*
%TO.C,MX2*%
X24038178Y-2103067D03*
X13916840Y-1217565D03*
D13*
X18977509Y-1660316D03*
D31*
X25493063Y2869052D03*
X11860914Y1512008D03*
%TD*%
D27*
%TO.C,LC18*%
X281740170Y-64305114D03*
X281875262Y-65849216D03*
%TD*%
D45*
%TO.C,C6*%
X123625728Y-52685905D03*
X122946906Y-53364727D03*
%TD*%
D41*
%TO.C,L20*%
X215492748Y-70610824D03*
X215213850Y-67423001D03*
X220095204Y-66995938D03*
X220374102Y-70183761D03*
%TD*%
D19*
%TO.C,D62*%
X103748676Y-94641088D03*
X104378346Y-91401718D03*
%TD*%
D46*
%TO.C,R9*%
X276259773Y-75806155D03*
X276418833Y-77624211D03*
%TD*%
D12*
%TO.C,D9*%
X180405697Y-14248361D03*
X179776027Y-11008991D03*
%TD*%
D14*
%TO.C,MX25*%
X202585984Y-26854015D03*
D13*
X207572650Y-25884705D03*
D14*
X212559316Y-24915395D03*
D21*
X212587340Y-19734867D03*
X199857329Y-24796871D03*
%TD*%
D12*
%TO.C,D64*%
X215047840Y-85140818D03*
X214418170Y-81901448D03*
%TD*%
D47*
%TO.C,LC15*%
X251214337Y-9389767D03*
X251079245Y-7845665D03*
%TD*%
D48*
%TO.C,LC1*%
X103376548Y-80592783D03*
X103080794Y-82114305D03*
%TD*%
D19*
%TO.C,D49*%
X91806946Y-72911581D03*
X92436616Y-69672211D03*
%TD*%
D49*
%TO.C,L7*%
X-11956789Y-6113160D03*
X-12235687Y-9300983D03*
X-17117041Y-8873920D03*
X-16838143Y-5686097D03*
%TD*%
D30*
%TO.C,R2*%
X129080754Y-41796517D03*
X129080754Y-43446517D03*
%TD*%
D13*
%TO.C,MX6*%
X94895492Y-12802783D03*
D14*
X99882158Y-13772093D03*
X89908826Y-11833473D03*
D15*
X101848801Y-8979289D03*
X88149481Y-8903951D03*
%TD*%
D13*
%TO.C,MX58*%
X301134980Y-54774118D03*
D14*
X306195649Y-54331367D03*
X296074311Y-55216869D03*
D22*
X306765032Y-49182148D03*
X293575634Y-52885773D03*
%TD*%
D25*
%TO.C,D14*%
X284347928Y-1327572D03*
X284060314Y1959870D03*
%TD*%
D13*
%TO.C,MX5*%
X76195498Y-9167869D03*
D14*
X81182164Y-10137179D03*
X71208832Y-8198559D03*
D15*
X83148807Y-5344375D03*
X69449487Y-5269037D03*
%TD*%
D28*
%TO.C,D2*%
X21927437Y-4371486D03*
X22215051Y-1084044D03*
%TD*%
D14*
%TO.C,MX19*%
X68688068Y-27115128D03*
X58714736Y-25176508D03*
D13*
X63701402Y-26145818D03*
D15*
X70654711Y-22322324D03*
X56955391Y-22246986D03*
%TD*%
D23*
%TO.C,C7*%
X130753885Y-43240113D03*
X130753885Y-42280113D03*
%TD*%
D14*
%TO.C,MX9*%
X171836079Y-13424641D03*
X181809411Y-11486021D03*
D13*
X176822745Y-12455331D03*
D21*
X181837435Y-6305493D03*
X169107424Y-11367497D03*
%TD*%
D14*
%TO.C,MX42*%
X259938188Y-39255603D03*
D13*
X254877519Y-39698354D03*
D14*
X249816850Y-40141105D03*
D22*
X260507571Y-34106384D03*
X247318173Y-37810009D03*
%TD*%
D50*
%TO.C,U2*%
X132954195Y-48505112D03*
X132954195Y-48905112D03*
X132954195Y-49305112D03*
X132954195Y-49705112D03*
X132954195Y-50105112D03*
X132954195Y-50505112D03*
X132954195Y-50905112D03*
X132954195Y-51305112D03*
X132954195Y-51705112D03*
X132954195Y-52105112D03*
X132954195Y-52505112D03*
X132954195Y-52905112D03*
X132954195Y-53305112D03*
X132954195Y-53705112D03*
D51*
X132116695Y-54542612D03*
X131716695Y-54542612D03*
X131316695Y-54542612D03*
X130916695Y-54542612D03*
X130516695Y-54542612D03*
X130116695Y-54542612D03*
X129716695Y-54542612D03*
X129316695Y-54542612D03*
X128916695Y-54542612D03*
X128516695Y-54542612D03*
X128116695Y-54542612D03*
X127716695Y-54542612D03*
X127316695Y-54542612D03*
X126916695Y-54542612D03*
D50*
X126079195Y-53705112D03*
X126079195Y-53305112D03*
X126079195Y-52905112D03*
X126079195Y-52505112D03*
X126079195Y-52105112D03*
X126079195Y-51705112D03*
X126079195Y-51305112D03*
X126079195Y-50905112D03*
X126079195Y-50505112D03*
X126079195Y-50105112D03*
X126079195Y-49705112D03*
X126079195Y-49305112D03*
X126079195Y-48905112D03*
X126079195Y-48505112D03*
D51*
X126916695Y-47667612D03*
X127316695Y-47667612D03*
X127716695Y-47667612D03*
X128116695Y-47667612D03*
X128516695Y-47667612D03*
X128916695Y-47667612D03*
X129316695Y-47667612D03*
X129716695Y-47667612D03*
X130116695Y-47667612D03*
X130516695Y-47667612D03*
X130916695Y-47667612D03*
X131316695Y-47667612D03*
X131716695Y-47667612D03*
X132116695Y-47667612D03*
D52*
X129516695Y-51105112D03*
%TD*%
D14*
%TO.C,MX56*%
X243886161Y-59782741D03*
D13*
X248946830Y-59339990D03*
D14*
X254007499Y-58897239D03*
D22*
X254576882Y-53748020D03*
X241387484Y-57451645D03*
%TD*%
D14*
%TO.C,MX14*%
X275911354Y387406D03*
D36*
X268470668Y6748112D03*
D14*
X286032692Y1272908D03*
D36*
X292255812Y8829042D03*
D13*
X280972023Y830157D03*
X269798921Y-8433895D03*
X293584066Y-6352965D03*
D22*
X286602075Y6422127D03*
X273412677Y2718502D03*
%TD*%
D28*
%TO.C,D32*%
X29044434Y-43239681D03*
X29332048Y-39952239D03*
%TD*%
D40*
%TO.C,R5*%
X148027508Y-41031913D03*
X147007508Y-41031913D03*
%TD*%
D13*
%TO.C,MX29*%
X289274464Y-17566244D03*
D14*
X284213795Y-18008995D03*
X294335133Y-17123493D03*
D22*
X294904516Y-11974274D03*
X281715118Y-15677899D03*
%TD*%
D53*
%TO.C,L6*%
X-14489289Y-32531428D03*
X-11301466Y-32810326D03*
X-11728529Y-37691680D03*
X-14916352Y-37412782D03*
%TD*%
D13*
%TO.C,MX36*%
X102141482Y-53024364D03*
D14*
X97154816Y-52055054D03*
X107128148Y-53993674D03*
D15*
X109094791Y-49200870D03*
X95395471Y-49125532D03*
%TD*%
D25*
%TO.C,D65*%
X236904248Y-81969951D03*
X236616634Y-78682509D03*
%TD*%
D54*
%TO.C,U5*%
X120845850Y-58325633D03*
X121795850Y-58325633D03*
X122745850Y-58325633D03*
X122745850Y-60600633D03*
X120845850Y-60600633D03*
%TD*%
D13*
%TO.C,MX37*%
X159782564Y-54580709D03*
D14*
X164769230Y-53611399D03*
X154795898Y-55550019D03*
D21*
X164797254Y-48430871D03*
X152067243Y-53492875D03*
%TD*%
D14*
%TO.C,MX12*%
X238422884Y-980133D03*
X228301546Y-1865635D03*
D13*
X233362215Y-1422884D03*
D22*
X238992267Y4169086D03*
X225802869Y465461D03*
%TD*%
D13*
%TO.C,MX35*%
X83441481Y-49389455D03*
D14*
X88428147Y-50358765D03*
X78454815Y-48420145D03*
D15*
X90394790Y-45565961D03*
X76695470Y-45490623D03*
%TD*%
D12*
%TO.C,D10*%
X199105696Y-10613449D03*
X198476026Y-7374079D03*
%TD*%
D28*
%TO.C,D44*%
X-29667125Y-47664466D03*
X-29379511Y-44377024D03*
%TD*%
D47*
%TO.C,LC16*%
X283127967Y-6211624D03*
X282992875Y-4667522D03*
%TD*%
D12*
%TO.C,D37*%
X163365521Y-56373738D03*
X162735851Y-53134368D03*
%TD*%
D19*
%TO.C,D6*%
X97545868Y-15807452D03*
X98175538Y-12568082D03*
%TD*%
D37*
%TO.C,L14*%
X215950630Y-11805454D03*
X216561219Y-14946661D03*
X211751246Y-15881626D03*
X211140657Y-12740419D03*
%TD*%
D13*
%TO.C,MX57*%
X275040905Y-57057054D03*
D14*
X280101574Y-56614303D03*
X269980236Y-57499805D03*
D22*
X280670957Y-51465084D03*
X267481559Y-55168709D03*
%TD*%
D32*
%TO.C,C4*%
X123719207Y-43439937D03*
X124679207Y-43439937D03*
%TD*%
D13*
%TO.C,MX7*%
X113595491Y-16437694D03*
D14*
X118582157Y-17407004D03*
X108608825Y-15468384D03*
D15*
X120548800Y-12614200D03*
X106849480Y-12538862D03*
%TD*%
D55*
%TO.C,C15*%
X132806927Y-62354175D03*
X133485749Y-61675353D03*
%TD*%
D56*
%TO.C,LC3*%
X36587564Y-67956486D03*
X36425544Y-69497994D03*
%TD*%
D20*
%TO.C,C10*%
X124899249Y-47780086D03*
X123939249Y-47780086D03*
%TD*%
D57*
%TO.C,L9*%
X53119236Y-11946668D03*
X52508647Y-15087875D03*
X47698674Y-14152910D03*
X48309263Y-11011703D03*
%TD*%
D28*
%TO.C,D3*%
X41070980Y-4134054D03*
X41358594Y-846612D03*
%TD*%
D58*
%TO.C,C16*%
X129815755Y-62694175D03*
X129136933Y-62015353D03*
%TD*%
D12*
%TO.C,D25*%
X211155608Y-27677736D03*
X210525938Y-24438366D03*
%TD*%
D13*
%TO.C,MX48*%
X70456571Y-66271999D03*
D14*
X75443237Y-67241309D03*
X65469905Y-65302689D03*
D15*
X77409880Y-62448505D03*
X63710560Y-62373167D03*
%TD*%
D28*
%TO.C,D30*%
X-26109061Y-28852988D03*
X-25821447Y-25565546D03*
%TD*%
D14*
%TO.C,MX22*%
X146485991Y-37758747D03*
D13*
X151472657Y-36789437D03*
D14*
X156459323Y-35820127D03*
D21*
X156487347Y-30639599D03*
X143757336Y-35701603D03*
%TD*%
D32*
%TO.C,C12*%
X134258000Y-47780084D03*
X135218000Y-47780084D03*
%TD*%
D24*
%TO.C,LC11*%
X107836169Y-24687264D03*
X108131923Y-23165742D03*
%TD*%
D12*
%TO.C,D22*%
X155055615Y-38582471D03*
X154425945Y-35343101D03*
%TD*%
%TO.C,D39*%
X200765517Y-49103914D03*
X200135847Y-45864544D03*
%TD*%
D13*
%TO.C,MX60*%
X13760415Y-77694831D03*
D14*
X18821084Y-78137582D03*
X8699746Y-77252080D03*
D31*
X20275969Y-73165463D03*
X6643820Y-74522507D03*
%TD*%
D29*
%TO.C,LC14*%
X218997208Y-12821443D03*
X218701454Y-11299921D03*
%TD*%
D14*
%TO.C,MX18*%
X40014733Y-21541597D03*
X49988065Y-23480217D03*
D13*
X45001399Y-22510907D03*
D15*
X51954708Y-18687413D03*
X38255388Y-18612075D03*
%TD*%
D59*
%TO.C,LC7*%
X-9440059Y-7885069D03*
X-9304967Y-6340967D03*
%TD*%
D12*
%TO.C,D40*%
X219465515Y-45469007D03*
X218835845Y-42229637D03*
%TD*%
D13*
%TO.C,MX43*%
X274542866Y-46264388D03*
X285715968Y-37000336D03*
D36*
X273214613Y-31082381D03*
X296999757Y-29001451D03*
D13*
X298328011Y-44183458D03*
D14*
X280655299Y-37443087D03*
X290776637Y-36557585D03*
D22*
X291346020Y-31408366D03*
X278156622Y-35111991D03*
%TD*%
D14*
%TO.C,MX28*%
X260491911Y-20084389D03*
D13*
X265552580Y-19641638D03*
D14*
X270613249Y-19198887D03*
D22*
X271182632Y-14049668D03*
X257993234Y-17753293D03*
%TD*%
D12*
%TO.C,D53*%
X195050428Y-69621369D03*
X194420758Y-66381999D03*
%TD*%
D13*
%TO.C,MX61*%
X68370772Y-85282509D03*
D14*
X63384106Y-84313199D03*
X73357438Y-86251819D03*
D15*
X75324081Y-81459015D03*
X61624761Y-81383677D03*
%TD*%
D25*
%TO.C,D12*%
X236738119Y-3580612D03*
X236450505Y-293170D03*
%TD*%
D60*
%TO.C,LC4*%
X1118782Y-64267909D03*
X983690Y-65812011D03*
%TD*%
D14*
%TO.C,MX33*%
X51028154Y-43088942D03*
X41054822Y-41150322D03*
D13*
X46041488Y-42119632D03*
D15*
X52994797Y-38296138D03*
X39295477Y-38220800D03*
%TD*%
D35*
%TO.C,LC21*%
X177897512Y-75970874D03*
X178193266Y-77492396D03*
%TD*%
D61*
%TO.C,L22*%
X146384471Y-85387958D03*
X145773882Y-82246751D03*
X150583855Y-81311786D03*
X151194444Y-84452993D03*
%TD*%
D62*
%TO.C,LR1*%
X122734860Y-64893003D03*
X120909860Y-64893003D03*
%TD*%
D13*
%TO.C,MX26*%
X226272647Y-22249789D03*
D14*
X221285981Y-23219099D03*
X231259313Y-21280479D03*
D21*
X231287337Y-16099951D03*
X218557326Y-21161955D03*
%TD*%
D14*
%TO.C,MX49*%
X94143236Y-70876218D03*
D13*
X89156570Y-69906908D03*
D14*
X84169904Y-68937598D03*
D15*
X96109879Y-66083414D03*
X82410559Y-66008076D03*
%TD*%
D13*
%TO.C,MX30*%
X-29058989Y-26141819D03*
D14*
X-23998320Y-26584570D03*
X-34119658Y-25699068D03*
D31*
X-22543435Y-21612451D03*
X-36175584Y-22969495D03*
%TD*%
D29*
%TO.C,LC13*%
X186092783Y-19201166D03*
X185797029Y-17679644D03*
%TD*%
D42*
%TO.C,L4*%
X3250063Y-66015196D03*
X3528961Y-62827373D03*
X8410315Y-63254436D03*
X8131417Y-66442259D03*
%TD*%
D12*
%TO.C,D54*%
X213750430Y-65986457D03*
X213120760Y-62747087D03*
%TD*%
D63*
%TO.C,R8*%
X273401781Y-77888171D03*
X273242721Y-76070115D03*
%TD*%
D64*
%TO.C,R4*%
X129766645Y-58797893D03*
X130487893Y-58076645D03*
%TD*%
D65*
%TO.C,R6*%
X131780988Y-8437808D03*
X132800988Y-8437808D03*
%TD*%
D19*
%TO.C,D5*%
X78845873Y-12172543D03*
X79475543Y-8933173D03*
%TD*%
D25*
%TO.C,D58*%
X304510885Y-56931849D03*
X304223271Y-53644407D03*
%TD*%
D13*
%TO.C,MX10*%
X195522739Y-8820417D03*
D14*
X200509405Y-7851107D03*
X190536073Y-9789727D03*
D21*
X200537429Y-2670579D03*
X187807418Y-7732583D03*
%TD*%
D13*
%TO.C,MX63*%
X174064889Y-90617610D03*
X160771095Y-84792155D03*
D36*
X187116355Y-95196398D03*
D14*
X179051555Y-89648300D03*
X169078223Y-91586920D03*
D13*
X184208426Y-80236400D03*
D36*
X163679025Y-99752154D03*
D21*
X179079579Y-84467772D03*
X166349568Y-89529776D03*
%TD*%
D14*
%TO.C,MX54*%
X215154138Y-63224117D03*
X205180806Y-65162737D03*
D13*
X210167472Y-64193427D03*
D21*
X215182162Y-58043589D03*
X202452151Y-63105593D03*
%TD*%
D25*
%TO.C,D27*%
X249950976Y-23459687D03*
X249663362Y-20172245D03*
%TD*%
D14*
%TO.C,MX66*%
X295362437Y-74401917D03*
D13*
X300423106Y-73959166D03*
D14*
X305483775Y-73516415D03*
D22*
X306053158Y-68367196D03*
X292863760Y-72070821D03*
%TD*%
D12*
%TO.C,D23*%
X173755610Y-34947558D03*
X173125940Y-31708188D03*
%TD*%
D28*
%TO.C,D31*%
X2950358Y-40956746D03*
X3237972Y-37669304D03*
%TD*%
D60*
%TO.C,LC5*%
X-29486912Y-61532835D03*
X-29622004Y-63076937D03*
%TD*%
D66*
%TO.C,J3*%
X136252240Y-3628008D03*
X130472240Y-3628008D03*
D67*
X130112240Y-5073008D03*
X130912240Y-5073008D03*
D68*
X132112240Y-5073008D03*
X133112240Y-5073008D03*
X133612240Y-5073008D03*
X134612240Y-5073008D03*
D67*
X135812240Y-5073008D03*
X136612240Y-5073008D03*
X136612240Y-5073008D03*
X135812240Y-5073008D03*
D68*
X135112240Y-5073008D03*
X134112240Y-5073008D03*
X132612240Y-5073008D03*
X131612240Y-5073008D03*
D67*
X130912240Y-5073008D03*
X130112240Y-5073008D03*
D69*
X137832240Y-4158008D03*
D70*
X128892240Y21992D03*
D71*
X128892240Y-4158008D03*
D70*
X137832240Y21992D03*
%TD*%
D72*
%TO.C,U1*%
X124504930Y-40658449D03*
X122604930Y-40658449D03*
X123554930Y-38783449D03*
%TD*%
D12*
%TO.C,D63*%
X177647840Y-92410647D03*
X177018170Y-89171277D03*
%TD*%
D19*
%TO.C,D4*%
X60145873Y-8537632D03*
X60775543Y-5298262D03*
%TD*%
%TO.C,D7*%
X116245867Y-19442363D03*
X116875537Y-16202993D03*
%TD*%
D73*
%TO.C,LC17*%
X273636944Y-42397840D03*
X275181046Y-42262748D03*
%TD*%
D49*
%TO.C,L8*%
X20410573Y-8494410D03*
X20131675Y-11682233D03*
X15250321Y-11255170D03*
X15529219Y-8067347D03*
%TD*%
D28*
%TO.C,D16*%
X4136239Y-21937729D03*
X4423853Y-18650287D03*
%TD*%
D19*
%TO.C,D61*%
X71021150Y-88287182D03*
X71650820Y-85047812D03*
%TD*%
D16*
%TO.C,SW1*%
X152405590Y-40981888D03*
D17*
X149865590Y-40981888D03*
%TD*%
D13*
%TO.C,MX16*%
X1186308Y-19226559D03*
D14*
X6246977Y-19669310D03*
X-3874361Y-18783808D03*
D31*
X7701862Y-14697191D03*
X-5930287Y-16054235D03*
%TD*%
D19*
%TO.C,D50*%
X110506943Y-76546490D03*
X111136613Y-73307120D03*
%TD*%
D74*
%TO.C,J1*%
X136623458Y-25866632D03*
X131023458Y-25866632D03*
D75*
X132323458Y-29741632D03*
X133323458Y-29741632D03*
X134323458Y-29741632D03*
X135323458Y-29741632D03*
%TD*%
D25*
%TO.C,D66*%
X303799013Y-76116896D03*
X303511399Y-72829454D03*
%TD*%
D48*
%TO.C,LC2*%
X70018316Y-73484481D03*
X69722562Y-75006003D03*
%TD*%
D12*
%TO.C,D8*%
X161705706Y-17883273D03*
X161076036Y-14643903D03*
%TD*%
D14*
%TO.C,MX65*%
X238589012Y-79369465D03*
D13*
X233528343Y-79812216D03*
D14*
X228467674Y-80254967D03*
D22*
X239158395Y-74220246D03*
X225968997Y-77923871D03*
%TD*%
D14*
%TO.C,MX50*%
X102869902Y-72572511D03*
X112843234Y-74511131D03*
D13*
X107856568Y-73541821D03*
D15*
X114809877Y-69718327D03*
X101110557Y-69642989D03*
%TD*%
D57*
%TO.C,L11*%
X115967120Y-24646668D03*
X115356531Y-27787875D03*
X110546558Y-26852910D03*
X111157147Y-23711703D03*
%TD*%
D14*
%TO.C,MX40*%
X220869226Y-42706659D03*
X210895894Y-44645279D03*
D13*
X215882560Y-43675969D03*
D21*
X220897250Y-37526131D03*
X208167239Y-42588135D03*
%TD*%
D12*
%TO.C,D11*%
X217805693Y-6978538D03*
X217176023Y-3739168D03*
%TD*%
D76*
%TO.C,F1*%
X129655958Y-12777809D03*
X129655958Y-15577809D03*
%TD*%
D25*
%TO.C,D57*%
X278416810Y-59214785D03*
X278129196Y-55927343D03*
%TD*%
%TO.C,D42*%
X258253422Y-41856084D03*
X257965808Y-38568642D03*
%TD*%
D14*
%TO.C,MX1*%
X5060669Y-442751D03*
D13*
X0Y0D03*
D14*
X-5060669Y442751D03*
D31*
X6515554Y4529368D03*
X-7116595Y3172324D03*
%TD*%
D14*
%TO.C,MX8*%
X163109411Y-15120931D03*
X153136079Y-17059551D03*
D13*
X158122745Y-16090241D03*
D21*
X163137435Y-9940403D03*
X150407424Y-15002407D03*
%TD*%
D14*
%TO.C,MX47*%
X46769910Y-61667773D03*
D13*
X51756576Y-62637083D03*
D14*
X56743242Y-63606393D03*
D15*
X58709885Y-58813589D03*
X45010565Y-58738251D03*
%TD*%
D14*
%TO.C,MX11*%
X219209401Y-4216192D03*
X209236069Y-6154812D03*
D13*
X214222735Y-5185502D03*
D21*
X219237425Y964336D03*
X206507414Y-4097668D03*
%TD*%
D13*
%TO.C,MX52*%
X172767477Y-71463246D03*
D14*
X177754143Y-70493936D03*
X167780811Y-72432556D03*
D21*
X177782167Y-65313408D03*
X165052156Y-70375412D03*
%TD*%
D57*
%TO.C,L10*%
X85804616Y-18296668D03*
X85194027Y-21437875D03*
X80384054Y-20502910D03*
X80994643Y-17361703D03*
%TD*%
D41*
%TO.C,L19*%
X249742929Y-67393011D03*
X249464031Y-64205188D03*
X254345385Y-63778125D03*
X254624283Y-66965948D03*
%TD*%
D27*
%TO.C,LC20*%
X213229042Y-69250361D03*
X213364134Y-70794463D03*
%TD*%
D61*
%TO.C,L21*%
X180573861Y-77016615D03*
X179963272Y-73875408D03*
X184773245Y-72940443D03*
X185383834Y-76081650D03*
%TD*%
D13*
%TO.C,MX32*%
X26094499Y-40528513D03*
D14*
X21033830Y-40085762D03*
X31155168Y-40971264D03*
D31*
X32610053Y-35999145D03*
X18977904Y-37356189D03*
%TD*%
D28*
%TO.C,D17*%
X27858127Y-24013123D03*
X28145741Y-20725681D03*
%TD*%
D13*
%TO.C,MX53*%
X191467474Y-67828336D03*
D14*
X186480808Y-68797646D03*
X196454140Y-66859026D03*
D21*
X196482164Y-61678498D03*
X183752153Y-66740502D03*
%TD*%
D42*
%TO.C,L5*%
X-27296228Y-63285048D03*
X-27017330Y-60097225D03*
X-22135976Y-60524288D03*
X-22414874Y-63712111D03*
%TD*%
D14*
%TO.C,MX3*%
X33060374Y-980129D03*
X43181712Y-1865631D03*
D13*
X38121043Y-1422880D03*
D31*
X44636597Y3106488D03*
X31004448Y1749444D03*
%TD*%
D77*
%TO.C,LC8*%
X22192449Y-10201073D03*
X22354469Y-8659565D03*
%TD*%
D13*
%TO.C,MX31*%
X427Y-38245578D03*
D14*
X5061096Y-38688329D03*
X-5060242Y-37802827D03*
D31*
X6515981Y-33716210D03*
X-7116168Y-35073254D03*
%TD*%
D23*
%TO.C,C17*%
X134745873Y-39953371D03*
X134745873Y-38993371D03*
%TD*%
D44*
%TO.C,L15*%
X248522502Y-8067345D03*
X248801400Y-11255168D03*
X243920046Y-11682231D03*
X243641148Y-8494408D03*
%TD*%
D14*
%TO.C,MX46*%
X26964520Y-59727395D03*
D13*
X32025189Y-60170146D03*
D14*
X37085858Y-60612897D03*
D31*
X38540743Y-55640778D03*
X24908594Y-56997822D03*
%TD*%
D28*
%TO.C,D1*%
X2949928Y-2711173D03*
X3237542Y576269D03*
%TD*%
M02*
