0
SECTION
2
HEADER
9
$INSUNITS
70
4
9
$ACADVER
1
AC1014
9
$HANDSEED
5
FFFF
0
ENDSEC
0
SECTION
2
TABLES
0
TABLE
2
VPORT
5
8
100
AcDbSymbolTable
0
ENDTAB
0
TABLE
2
LTYPE
5
5
100
AcDbSymbolTable
0
LTYPE
5
14
100
AcDbSymbolTableRecord
100
AcDbLinetypeTableRecord
2
BYBLOCK
70
0
0
LTYPE
5
15
100
AcDbSymbolTableRecord
100
AcDbLinetypeTableRecord
2
BYLAYER
70
0
0
ENDTAB
0
TABLE
2
LAYER
5
2
100
AcDbSymbolTable
70
2
0
LAYER
5
50
100
AcDbSymbolTableRecord
100
AcDbLayerTableRecord
2
0
70
0
6
CONTINUOUS
0
ENDTAB
0
TABLE
2
STYLE
5
3
100
AcDbSymbolTable
70
1
0
STYLE
5
11
100
AcDbSymbolTableRecord
100
AcDbTextStyleTableRecord
2
STANDARD
70
0
0
ENDTAB
0
TABLE
2
VIEW
5
6
100
AcDbSymbolTable
70
0
0
ENDTAB
0
TABLE
2
UCS
5
7
100
AcDbSymbolTable
70
0
0
ENDTAB
0
TABLE
2
APPID
5
9
100
AcDbSymbolTable
70
2
0
APPID
5
12
100
AcDbSymbolTableRecord
100
AcDbRegAppTableRecord
2
ACAD
70
0
0
ENDTAB
0
TABLE
2
DIMSTYLE
5
A
100
AcDbSymbolTable
70
1
0
ENDTAB
0
TABLE
2
BLOCK_RECORD
5
1
100
AcDbSymbolTable
70
1
0
BLOCK_RECORD
5
1F
100
AcDbSymbolTableRecord
100
AcDbBlockTableRecord
2
*MODEL_SPACE
0
BLOCK_RECORD
5
1B
100
AcDbSymbolTableRecord
100
AcDbBlockTableRecord
2
*PAPER_SPACE
0
ENDTAB
0
ENDSEC
0
SECTION
2
BLOCKS
0
BLOCK
5
20
100
AcDbEntity
100
AcDbBlockBegin
2
*MODEL_SPACE
0
ENDBLK
5
21
100
AcDbEntity
100
AcDbBlockEnd
0
BLOCK
5
1C
100
AcDbEntity
100
AcDbBlockBegin
2
*PAPER_SPACE
0
ENDBLK
5
1D
100
AcDbEntity
100
AcDbBlockEnd
0
ENDSEC
0
SECTION
2
ENTITIES
0
LWPOLYLINE
5
100
100
AcDbEntity
8
0
100
AcDbPolyline
90
8
70
1
43
0.0
10
-38.456204286767012
20
12.639186460161646
42
0.41421356237309354
10
-38.851613382094513
20
13.225404548702315
10
-51.612766837147497
20
15.705921473062876
42
0.41421356237309764
10
-52.198984925688094
20
15.310512377735424
10
-54.679501850048631
20
2.5493589226824986
42
0.41421356237309531
10
-54.284092754721122
20
1.9631408341418188
10
-41.52293929966816
20
-0.51737609021880715
42
0.41421356237309748
10
-40.936721211127541
20
-0.1219669948913582
0
LWPOLYLINE
5
101
100
AcDbEntity
8
0
100
AcDbPolyline
90
8
70
1
43
0.0
10
-57.156202140520989
20
16.274097781079575
10
-59.636719064881525
20
3.5129443260267323
42
-0.41421356237309365
10
-60.222937153422208
20
3.1175352306992261
10
-72.984090608475114
20
5.5980521550598432
42
-0.41421356237309065
10
-73.379499703802622
20
6.1842702436005208
10
-70.898982779442122
20
18.945423698653308
42
-0.41421356237309837
10
-70.312764690901474
20
19.340832793980791
10
-57.55161123584849
20
16.860315869620244
42
-0.41421356237309742
0
LWPOLYLINE
5
102
100
AcDbEntity
8
0
100
AcDbPolyline
90
8
70
1
43
0.0
10
-75.856200081639201
20
19.909009118979377
10
-78.336717005999731
20
7.1478556639265669
42
-0.41421356237309731
10
-78.922935094540335
20
6.7524465685991153
10
-91.684088549593298
20
9.2329634929597368
42
-0.41421356237309725
10
-92.079497644920821
20
9.8191815815004233
10
-89.59898072056032
20
22.580335036553091
42
-0.41421356237309614
10
-89.012762632019644
20
22.975744131880589
10
-76.251609176966696
20
20.495227207520045
42
-0.4142135623730927
0
LWPOLYLINE
5
103
100
AcDbEntity
8
0
100
AcDbPolyline
90
8
70
1
43
0.0
10
-295.58271357271667
20
66.127882432024464
10
-294.44968891699699
20
53.177351356831821
42
-0.41421356237308987
10
-294.90420839466907
20
52.635676136412073
10
-307.85473946986184
20
51.502651480692556
42
-0.41421356237309415
10
-308.39641469028152
20
51.957170958364571
10
-309.52943934600114
20
64.907702033557257
42
-0.41421356237306822
10
-309.07491986832906
20
65.449377253976991
10
-296.12438879313629
20
66.582401909696415
42
-0.41421356237312656
0
LWPOLYLINE
5
104
100
AcDbEntity
8
0
100
AcDbPolyline
90
8
70
1
43
0.0
10
-285.64279092179129
20
55.352775707516827
10
-286.69737541163516
20
67.406731584115903
42
-0.41421356237308488
10
-285.78833645629112
20
68.490082024955285
10
-247.63407948968816
20
71.828146974787259
42
-0.41421356237309481
10
-246.55072904884878
20
70.919108019443158
10
-245.49614455900493
20
58.865152142844089
42
-0.41421356237309792
10
-246.40518351434903
20
57.781801702004707
10
-284.55944048095199
20
54.443736752172768
42
-0.41421356237309392
0
LWPOLYLINE
5
105
100
AcDbEntity
8
0
100
AcDbPolyline
90
8
70
1
43
0.0
10
-238.62113284888801
20
52.490517015447189
42
0.41421356237308987
10
-239.07565232656
20
51.948841795027512
10
-237.94262767084052
20
38.998310719834791
42
0.41421356237310542
10
-237.40095245042079
20
38.54379124216269
10
-224.45042137522807
20
39.676815897882335
42
0.41421356237308377
10
-223.99590189755602
20
40.218491118302012
10
-225.12892655327562
20
53.169022193494726
42
0.41421356237309503
10
-225.67060177369535
20
53.623541671166777
0
LWPOLYLINE
5
106
100
AcDbEntity
8
0
100
AcDbPolyline
90
8
70
1
43
0.0
10
-217.36506218575056
20
41.560548813132243
10
-219.84557906067204
20
54.321702269191086
42
-0.41421354074058292
10
-219.45016995959011
20
54.907920322352638
10
-206.68901661244746
20
57.388437236386167
42
-0.41421356237309503
10
-206.10279852303535
20
56.993028142350539
10
-203.62228160900187
20
44.231874795207808
42
-0.41421356237310331
10
-204.01769070303746
20
43.64565670579573
10
-216.77884403888896
20
41.165139733674096
42
-0.41421352574791109
0
LWPOLYLINE
5
107
100
AcDbEntity
8
0
100
AcDbPolyline
90
8
70
1
43
0.0
10
-187.7652619943922
20
41.660289627905094
10
-175.00410853833333
20
44.140806502826642
42
-0.4142135041153755
10
-174.41789049710178
20
43.74539746311909
10
-171.93737357113832
20
30.984244054601966
42
-0.41421356237309503
10
-172.33278266517388
20
30.398025965189852
10
-185.09393604856714
20
27.917509044110062
42
-0.41421350411538205
10
-185.68015408979875
20
28.312918083817621
10
-188.16067108089672
20
41.074071517294058
42
-0.41421350411540647
0
LWPOLYLINE
5
108
100
AcDbEntity
8
0
100
AcDbPolyline
90
8
70
1
43
0.0
10
-94.556197925132409
20
23.543920437902802
10
-97.036714849492938
20
10.782766982850234
42
-0.41421356237309709
10
-97.622932938033685
20
10.38735788752267
10
-110.38408639308651
20
12.867874811883269
42
-0.41421356237309898
10
-110.779495488414
20
13.45409290042392
10
-108.29897856405351
20
26.215246355476523
42
-0.41421356237309709
10
-107.71276047551285
20
26.610655450804014
10
-94.951607020459917
20
24.130138526443471
42
-0.41421356237309287
0
LWPOLYLINE
5
109
100
AcDbEntity
8
0
100
AcDbPolyline
90
8
70
1
43
0.0
10
-256.92013666948822
20
37.337993820491903
10
-258.05316132520784
20
50.28852489568461
42
-0.41421356237309503
10
-257.59864184753582
20
50.830200116104294
10
-244.6481107723431
20
51.963224771823846
42
-0.41421356237309503
10
-244.1064355519234
20
51.508705294151831
10
-242.97341089620375
20
38.558174218959145
42
-0.41421356237308926
10
-243.42793037387582
20
38.016498998539419
10
-256.37846144906865
20
36.883474342819937
42
-0.41421356237310086
0
LWPOLYLINE
5
110
100
AcDbEntity
8
0
100
AcDbPolyline
90
8
70
1
43
0.0
10
-225.1652575932884
20
34.390466809765776
10
-212.40410424614566
20
36.870983723799142
42
-0.41421352574790538
10
-211.81788616866356
20
36.475574691138078
10
-209.33736923565388
20
23.714421246370367
42
-0.41421354074056022
10
-209.73277833673578
20
23.128203193208847
10
-222.49393168387843
20
20.64768627917541
42
-0.41421352574790027
10
-223.08014976136053
20
21.043095311836538
10
-225.5606666943703
20
33.80424875660416
42
-0.4142135407406175
0
LWPOLYLINE
5
111
100
AcDbEntity
8
0
100
AcDbPolyline
90
8
70
1
43
0.0
10
-204.38015197931009
20
24.678006636726124
10
-206.86066885423159
20
37.439160092785009
42
-0.41421354074057443
10
-206.46525975314961
20
38.025378145946561
10
-193.70410640600704
20
40.505895059980013
42
-0.41421356237308482
10
-193.11788831659493
20
40.110485965944477
10
-190.63737140256148
20
27.349332618801693
42
-0.41421352574787224
10
-191.03278043522263
20
26.763114541319602
10
-203.79393386869907
20
24.282597550221546
42
-0.41421350411533664
0
LWPOLYLINE
5
112
100
AcDbEntity
8
0
100
AcDbPolyline
90
8
70
1
43
0.0
10
-179.45535105079648
20
23.869019582189956
10
-166.69419766740322
20
26.349536503269828
42
-0.41421350411535368
10
-166.10797962617167
20
25.954127463562294
10
-163.6274626931619
20
13.192974018794622
42
-0.41421350411535962
10
-164.02287173286939
20
12.60675597756302
10
-176.78402514138656
20
10.126239051599612
42
-0.41421356237305268
10
-177.37024323079868
20
10.521648145635183
10
-179.85076014483198
20
23.282801492777892
42
-0.41421356237310786
0
LWPOLYLINE
5
113
100
AcDbEntity
8
0
100
AcDbPolyline
90
8
70
1
43
0.0
10
-158.67024543681819
20
14.156559409150375
10
-161.15076231173981
20
26.917712865209218
42
-0.4142135407405273
10
-160.75535321065783
20
27.503930918370791
10
-147.99419986351504
20
29.984447832404165
42
-0.41421356237307361
10
-147.40798177410295
20
29.5890387383686
10
-144.92746486006953
20
16.827885391225976
42
-0.41421356237311674
10
-145.32287395410515
20
16.241667301813862
10
-158.08402728995665
20
13.761150329692232
42
-0.41421352574786796
0
LWPOLYLINE
5
114
100
AcDbEntity
8
0
100
AcDbPolyline
90
8
70
1
43
0.0
10
-166.98015616197046
20
31.947829490088395
10
-169.46067307600396
20
44.708982837231105
42
-0.41421352574784676
10
-169.06526404334286
20
45.295200914713206
10
-156.30411063482569
20
47.775717840676634
42
-0.41421356237307361
10
-155.7178925454136
20
47.380308746641063
10
-153.23737562433379
20
34.619155363247835
42
-0.41421350411535729
10
-153.63278466404128
20
34.032937322016238
10
-166.39393807255843
20
31.552420396052909
42
-0.41421356237309503
0
LWPOLYLINE
5
115
100
AcDbEntity
8
0
100
AcDbPolyline
90
8
70
1
43
0.0
10
-45.211380010698726
20
52.765365744373071
42
0.41421356237309503
10
-45.60678910602622
20
53.351583832913725
10
-58.367942561079182
20
55.83210075727429
42
0.41421356237309503
10
-58.954160649619816
20
55.43669166194681
10
-61.43467757398038
20
42.675538206893854
42
0.41421356237309503
10
-61.039268478652872
20
42.089320118353172
10
-48.278115023599987
20
39.608803193992642
42
0.41421356237309553
10
-47.691896935059283
20
40.004212289320158
0
LWPOLYLINE
5
116
100
AcDbEntity
8
0
100
AcDbPolyline
90
8
70
1
43
0.0
10
-63.911377854191912
20
56.400277063296507
10
-66.391894778552455
20
43.639123608243565
42
-0.41421356237308998
10
-66.978112867093117
20
43.24371451291605
10
-79.739266322146065
20
45.7242314372766
42
-0.41421356237309453
10
-80.134675417473588
20
46.310449525817283
10
-77.654158493113044
20
59.07160298087021
42
-0.41421356237309609
10
-77.067940404572369
20
59.467012076197719
10
-64.306786949519392
20
56.986495151837161
42
-0.41421356237308632
0
LWPOLYLINE
5
117
100
AcDbEntity
8
0
100
AcDbPolyline
90
8
70
1
43
0.0
10
-82.611375697685162
20
60.035188382219928
10
-85.091892622045648
20
47.274034927166966
42
-0.41421356237309204
10
-85.67811071058631
20
46.878625831839486
10
-98.439264165639315
20
49.359142756200036
42
-0.41421356237308904
10
-98.834673260966809
20
49.945360844740691
10
-96.354156336606252
20
62.706514299793653
42
-0.41421356237309703
10
-95.767938248065576
20
63.101923395121148
10
-83.006784793012656
20
60.621406470760576
42
-0.41421356237309381
0
LWPOLYLINE
5
118
100
AcDbEntity
8
0
100
AcDbPolyline
90
8
70
1
43
0.0
10
-101.31137355143913
20
63.670099703137851
10
-103.79189047579973
20
50.908946248084888
42
-0.41421356237309609
10
-104.37810856434038
20
50.513537152757415
10
-117.13926201939324
20
52.994054077117951
42
-0.41421356237309465
10
-117.53467111472077
20
53.580272165658627
10
-115.05415419036026
20
66.34142562071159
42
-0.4142135623730972
10
-114.46793610181959
20
66.736834716039084
10
-101.70678264676664
20
64.256317791678526
42
-0.41421356237309431
0
LWPOLYLINE
5
119
100
AcDbEntity
8
0
100
AcDbPolyline
90
8
70
1
43
0.0
10
-170.00021447374084
20
83.417212738711299
10
-167.5196976058657
20
70.656059318902976
42
-0.41421352574789061
10
-167.91510663852682
20
70.069841241420846
10
-180.67626008329449
20
67.589324308411079
42
-0.41421350411536839
10
-181.26247812452604
20
67.984733348118581
10
-183.74299505753586
20
80.745886792886253
42
-0.41421350411536534
10
-183.34758601782829
20
81.332104834117857
10
-170.58643258435183
20
83.812621825215828
42
-0.41421350411536134
0
LWPOLYLINE
5
120
100
AcDbEntity
8
0
100
AcDbPolyline
90
92
70
1
43
0.0
10
-166.76921504097186
20
92.322332065876992
10
-210.94243829611679
20
83.735927273932447
42
0.41421356237308998
10
-211.7332564841879
20
82.563491095108233
10
-211.16082945848063
20
79.618609341156031
42
-0.4142135598934214
10
-211.95164763824118
20
78.446173163947236
10
-229.39529468456846
20
75.055471505332875
10
-247.42386736137459
20
73.478053908202725
42
-0.41421552721415039
10
-248.5072244850669
20
74.387092278850346
10
-248.7686773887938
20
77.375512643157961
42
0.41421356237311857
10
-249.85202782963319
20
78.284551598502034
10
-294.68078924376181
20
74.36254317485745
42
0.4142135623730927
10
-295.58982819910585
20
73.279192734018039
10
-295.32834664635078
20
70.290444909819968
42
-0.41421159753477238
10
-296.23737891884196
20
69.207095053677023
10
-314.26596496134937
20
67.629676287109177
42
0.41421396284461176
10
-314.74320653487331
20
67.060913389038461
10
-306.51499467525343
20
-26.979231661629406
42
0.41421120193068339
10
-305.94623605465637
20
-27.456472888829072
10
-299.73782446967982
20
-26.913307152691427
42
-0.41421356723984171
10
-298.65447401228755
20
-27.822346106587315
10
-298.39300681952517
20
-30.810929795317278
42
0.41421356237312379
10
-297.30965637868576
20
-31.719968750661359
10
-252.48089496455719
20
-27.797960327016739
42
0.41421356237307888
10
-251.57185600921312
20
-26.714609886177342
10
-251.8333232729367
20
-23.726025386356842
42
-0.41421355750634725
10
-250.92428433414551
20
-22.642674946965631
10
-244.71587271606253
20
-22.099509207931554
42
-0.4142135672398235
10
-243.65960602010517
20
-22.985822187980176
10
-243.63302358808158
20
-23.289660776344693
42
0.41421356237308493
10
-243.06426460664088
20
-23.766906227900357
10
-225.0751439874546
20
-22.193062106921097
42
0.33477796070799198
10
-224.60548078014034
20
-21.769896017144916
42
-0.30591028548939769
10
-223.83431103241287
20
-20.998219463237639
10
-217.44232978685969
20
-19.755744161040582
42
-0.41421356288897804
10
-216.26989360630648
20
-20.546562348775627
10
-215.69746662841087
20
-23.491443856758316
42
0.41421356237308332
10
-214.52503044958664
20
-24.282262044829466
10
-170.35180719444173
20
-15.695857252884924
42
0.41421356237307766
10
-169.56098900637068
20
-14.523421074060723
10
-170.13341600073429
20
-11.578539481357435
42
-0.41421356185721153
10
-169.34259781439212
20
-10.406103302869303
10
-162.95061656538047
20
-9.163628000000001
10
-110.1130182818271
20
-9.1636279999999424
10
-104.4821416480321
20
-10.258159551086072
42
-0.41421356185720409
10
-103.69132346168996
20
-11.430595729574197
10
-104.26375045605363
20
-14.37547732227757
42
0.41421356237310297
10
-103.4729322679825
20
-15.547913501101775
10
-59.29970901283761
20
-24.134318293046299
42
0.41421356237309276
10
-58.127272834013404
20
-23.343500104975181
10
-57.554845856117794
20
-20.398618596992534
42
-0.41421356288898459
10
-56.382409675564588
20
-19.607800409257493
10
-50.75153304522707
20
-20.702331959671572
42
-0.36199025004357305
10
-49.96262510784539
20
-21.669612261266881
42
0.39189092512208012
10
-49.483410567640433
20
-22.198103445952032
10
-31.551906001989025
20
-23.766906815409882
42
0.41421356237309009
10
-30.98314702054833
20
-23.289661363854233
10
-30.956565100154812
20
-22.985828623448413
42
-0.41421364536599808
10
-29.900298145116132
20
-22.099515666066601
10
-21.793764425354528
20
-22.808747781649132
42
-0.41421347938020792
10
-20.884725752287636
20
-23.892098197792443
10
-21.146193585583969
20
-26.880689207859263
42
0.41421356237309903
10
-20.237154630239885
20
-27.964039648698666
10
24.591606783888661
20
-31.886048072343279
42
0.41421356237309764
10
25.674957224728065
20
-30.977009116999199
10
25.93642384791767
20
-27.98843193851561
42
-0.41421364536599087
10
27.019774571034279
20
-27.079393007867623
10
35.126307726241961
20
-27.788625074057922
42
0.4142130496803817
10
35.695066762817078
20
-27.3113806991486
10
43.922762416532287
20
66.729408108851047
42
0.41421415895482788
10
43.445517056438007
20
67.29816815411256
10
24.930720418483759
20
68.918002910353707
42
-0.41421356326901421
10
24.021681460092456
20
70.001353351459713
10
24.283148681803791
20
72.989937371077943
42
0.41421356237310175
10
23.374109726459711
20
74.073287811917353
10
-21.454651687668846
20
77.995296235561966
42
0.41421356237310025
10
-22.53800212850825
20
77.086257280217879
10
-22.79946936328286
20
74.097673111285673
42
-0.41421356147717431
10
-23.882819801075037
20
73.188634155675004
10
-42.397616445123276
20
74.8084689124493
10
-60.476623930305976
20
78.3226720173394
42
-0.41421356173278051
10
-61.267442116231088
20
79.495108195746454
10
-60.695015119881496
20
82.439989798666545
42
0.41421356237310269
10
-61.485833307952618
20
83.612425977490759
10
-105.65905656309751
20
92.198830769435261
42
0.41421356237309503
10
-106.83149274192172
20
91.408012581364133
10
-107.4039197178314
20
88.463131083598284
42
-0.41421356301341317
10
-108.57635589880162
20
87.672312895944287
10
-126.65536337969178
20
91.186515999999997
10
-146.40826869875417
20
91.186515999999997
10
-163.85191572846082
20
87.795814344616332
42
-0.41421356485277222
10
-165.02435191559562
20
88.586632531072041
10
-165.59677886214763
20
91.53151387780585
42
0.41421356237310836
0
LWPOLYLINE
5
121
100
AcDbEntity
8
0
100
AcDbPolyline
90
8
70
1
43
0.0
10
5.9729947905108816
20
29.194115262865115
10
4.8399701347912911
20
16.243584187672408
42
-0.41421356237307544
10
4.2982949143716098
20
15.789064710000424
10
-8.6522361608210865
20
16.922089365719934
42
-0.41421356237308987
10
-9.1067556384931194
20
17.463764586139643
10
-7.9737309827735174
20
30.414295661332314
42
-0.41421356237310808
10
-7.4320557623538663
20
30.868815139004351
10
5.5184753128388326
20
29.735790483284855
42
-0.41421356237312507
0
LWPOLYLINE
5
122
100
AcDbEntity
8
0
100
AcDbPolyline
90
8
70
1
43
0.0
10
-20.121080082629774
20
31.4770509994616
10
-21.254104738349305
20
18.526519924268872
42
-0.41421356237310758
10
-21.795779958769046
20
18.072000446596821
10
-34.746311033961732
20
19.205025102316434
42
-0.41421356237308715
10
-35.200830511633747
20
19.746700322736128
10
-34.067805855914216
20
32.69723139792886
42
-0.41421356237308399
10
-33.526130635494496
20
33.151750875600889
10
-20.575599560301804
20
32.018726219881316
42
-0.41421356237310542
0
LWPOLYLINE
5
123
100
AcDbEntity
8
0
100
AcDbPolyline
90
8
70
1
43
0.0
10
-39.496292368931407
20
32.247912273297594
10
-41.976809293291964
20
19.486758818244706
42
-0.41421356237309531
10
-42.56302738183269
20
19.091349722917172
10
-55.324180836885589
20
21.571866647277695
42
-0.41421356237309381
10
-55.71958993221309
20
22.158084735818363
10
-53.239073007852546
20
34.919238190871262
42
-0.41421356237309764
10
-52.652854919311842
20
35.314647286198792
10
-39.891701464258915
20
32.834130361838263
42
-0.41421356237309126
0
LWPOLYLINE
5
124
100
AcDbEntity
8
0
100
AcDbPolyline
90
8
70
1
43
0.0
10
-161.52643536885893
20
84.045631806388144
10
-158.85510942245273
20
70.302851274385077
42
-0.41421356237310014
10
-159.25051851648823
20
69.716633184973034
10
-165.14028158170697
20
68.571779201905116
42
-0.4142136145077141
10
-165.7264997375454
20
68.967188310000481
10
-168.3978255863266
20
82.709968860979842
42
-0.41421354074060107
10
-168.00241648524462
20
83.29618691414143
10
-162.11265345827101
20
84.441040900423658
42
-0.41421356237309503
0
LWPOLYLINE
5
125
100
AcDbEntity
8
0
100
AcDbPolyline
90
8
70
1
43
0.0
10
-58.196290212424636
20
35.88282359222098
10
-60.676807136785193
20
23.121670137168039
42
-0.41421356237308737
10
-61.263025225325819
20
22.726261041840559
10
-74.024178680378753
20
25.206777966201088
42
-0.41421356237309737
10
-74.419587775706276
20
25.792996054741764
10
-71.939070851345733
20
38.554149509794698
42
-0.41421356237310791
10
-71.352852762805057
20
38.949558605122185
10
-58.591699307752158
20
36.469041680761663
42
-0.41421356237309687
0
LWPOLYLINE
5
126
100
AcDbEntity
8
0
100
AcDbPolyline
90
8
70
1
43
0.0
10
-76.896288153542812
20
39.517734930120781
10
-79.376805077903356
20
26.756581475067808
42
-0.41421356237308637
10
-79.963023166443975
20
26.361172379740331
10
-92.724176621496952
20
28.841689304100861
42
-0.41421356237309903
10
-93.11958571682446
20
29.427907392641529
10
-90.639068792463945
20
42.189060847694478
42
-0.41421356237309404
10
-90.052850703923269
20
42.584469943021972
10
-77.291697248870292
20
40.103953018661429
42
-0.41421356237308909
0
LWPOLYLINE
5
127
100
AcDbEntity
8
0
100
AcDbPolyline
90
8
70
1
43
0.0
10
-95.596285997036006
20
43.152646249044167
42
0.41421356237309404
10
-95.9916950923635
20
43.738864337584829
10
-108.75284854741648
20
46.219381261945372
42
0.41421356237309609
10
-109.33906663595714
20
45.823972166617885
10
-111.81958356031771
20
33.062818711564958
42
0.41421356237309659
10
-111.42417446499019
20
32.476600623024275
10
-98.663021009937211
20
29.996083698663728
42
0.41421356237309609
10
-98.076802921396535
20
30.391492793991222
0
LWPOLYLINE
5
128
100
AcDbEntity
8
0
100
AcDbPolyline
90
8
70
1
43
0.0
10
19.952662584705649
20
5.3600109703507215
10
21.085687240425205
20
18.310542045543432
42
-0.41421356237306373
10
21.627362460844903
20
18.765061523215412
10
34.577893536037593
20
17.632036867495856
42
-0.41421356237306628
10
35.032413013709629
20
17.090361647076246
10
33.899388357990063
20
4.1398305718835733
42
-0.41421356237309631
10
33.357713137570414
20
3.6853110942115208
10
20.4071820623777
20
4.8183357499310562
42
-0.4142135623730846
0
LWPOLYLINE
5
129
100
AcDbEntity
8
0
100
AcDbPolyline
90
8
70
1
43
0.0
10
-283.69271684753585
20
48.547264116104294
10
-270.74218577234313
20
49.680288771823868
42
-0.41421356237305917
10
-270.20051055192346
20
49.225769294151831
10
-269.06748589620378
20
36.275238218959146
42
-0.4142135623730866
10
-269.52200537387586
20
35.733562998539419
10
-282.47253644906868
20
34.600538342819938
42
-0.41421356237308471
10
-283.0142116694883
20
35.055057820491903
10
-284.14723632520787
20
48.00558889568461
42
-0.41421356237309503
0
LWPOLYLINE
5
130
100
AcDbEntity
8
0
100
AcDbPolyline
90
8
70
1
43
0.0
10
-267.90004802425506
20
-5.9336301020218585
42
0.41421356237311596
10
-268.44172324467468
20
-5.4791106243497758
10
-274.41889143322521
20
-6.0020450808357495
42
0.41421356237309687
10
-274.87341091089718
20
-6.5437203012554335
10
-273.65323051243001
20
-20.490446074539861
42
0.4142135623731158
10
-273.11155529201028
20
-20.944965552211876
10
-267.1343871034598
20
-20.422031095725934
42
0.4142135623731158
10
-266.67986762578778
20
-19.880355875306215
0
LWPOLYLINE
5
131
100
AcDbEntity
8
0
100
AcDbPolyline
90
8
70
1
43
0.0
10
-204.80543630855368
20
-0.46509086408320854
10
-192.04428292516053
20
2.0154260569966138
42
-0.41421350411539154
10
-191.45806488392896
20
1.6200170172890909
10
-188.97754795091916
20
-11.141136427478536
42
-0.41421354074062949
10
-189.37295705200114
20
-11.727354480640102
10
-202.13411039914376
20
-14.207871394673425
42
-0.41421356237311624
10
-202.72032848855588
20
-13.812462300637982
10
-205.20084540258921
20
-1.0513089534952029
42
-0.41421356237308743
0
LWPOLYLINE
5
132
100
AcDbEntity
8
0
100
AcDbPolyline
90
8
70
1
43
0.0
10
-291.68519263589354
20
-8.014560615864923
42
0.41421356237311596
10
-292.22686785631322
20
-7.5600411381928758
10
-298.20403604486376
20
-8.0829755946788495
42
0.41421356237309503
10
-298.65855552253572
20
-8.6246508150985335
10
-297.4383751240685
20
-22.571376588382961
42
0.41421356237309503
10
-296.89669990364882
20
-23.025896066054976
10
-290.91953171509834
20
-22.50296160956907
42
0.41421356237309764
10
-290.46501223742627
20
-21.961286389149347
0
LWPOLYLINE
5
133
100
AcDbEntity
8
0
100
AcDbPolyline
90
8
70
1
43
0.0
10
-272.6439949978394
20
31.896864127822937
42
0.41421356237307411
10
-273.18567021825908
20
32.351383605494888
10
-279.16283840680944
20
31.828449149009046
42
0.41421356237315726
10
-279.61735788448158
20
31.286773928589326
10
-278.39717748601441
20
17.340048155304899
42
0.41421356237311591
10
-277.85550226559462
20
16.885528677632816
10
-271.8783340770442
20
17.408463134118755
42
0.41421356237305718
10
-271.42381459937224
20
17.950138354538474
0
LWPOLYLINE
5
134
100
AcDbEntity
8
0
100
AcDbPolyline
90
8
70
1
43
0.0
10
-296.42913960947789
20
29.815933613979837
42
0.41421356237311602
10
-296.97081482989756
20
30.270453091651813
10
-302.9479830184481
20
29.747518635165946
42
0.41421356237307688
10
-303.40250249612012
20
29.205843414746223
10
-302.18232209765296
20
15.259117641461799
42
0.41421356237313683
10
-301.64064687723322
20
14.804598163789755
10
-295.66347868868269
20
15.32753262027569
42
0.41421356237307949
10
-295.20895921101067
20
15.869207840695418
0
LWPOLYLINE
5
135
100
AcDbEntity
8
0
100
AcDbPolyline
90
8
70
1
43
0.0
10
-296.29458555192338
20
46.942833294151839
10
-295.16156089620375
20
33.992302218959153
42
-0.4142135623730866
10
-295.61608037387583
20
33.45062699853942
10
-308.56661144906866
20
32.317602342819939
42
-0.41421356237308748
10
-309.10828666948822
20
32.772121820491904
10
-310.24131132520785
20
45.722652895684618
42
-0.41421356237312701
10
-309.78679184753582
20
46.264328116104295
10
-296.83626077234305
20
47.397352771823847
42
-0.41421356237309503
0
LWPOLYLINE
5
136
100
AcDbEntity
8
0
100
AcDbPolyline
90
8
70
1
43
0.0
10
-113.1558196850962
20
69.590583152205809
10
-119.04558281168937
20
70.735437147203598
42
-0.41421356237308482
10
-119.44099190572493
20
71.321655236615726
10
-116.76966595931873
20
85.064435768618779
42
-0.41421356237308482
10
-116.18344786990662
20
85.459844862654322
10
-110.29368478155851
20
84.314990864442066
42
-0.41421350411538238
10
-109.89827574185099
20
83.728772823210491
10
-112.56960159568413
20
69.985992246241366
42
-0.41421356237309503
0
LWPOLYLINE
5
137
100
AcDbEntity
8
0
100
AcDbPolyline
90
8
70
1
43
0.0
10
-96.003661248601645
20
66.765899649743417
42
0.41421356237311652
10
-95.60825215456606
20
66.179681560331318
10
-89.718489127592392
20
65.034827574049089
42
0.41421356237310525
10
-89.132271038180306
20
65.43023666808466
10
-86.460945084727712
20
79.173017236338183
42
0.41421350411535485
10
-86.856354113144008
20
79.759235335658033
10
-92.746117251028352
20
80.904089272567589
42
0.41421355624995465
10
-93.332335348353709
20
80.508680254412099
0
LWPOLYLINE
5
138
100
AcDbEntity
8
0
100
AcDbPolyline
90
8
70
1
43
0.0
10
6.9352000218275478
20
50.742250712198711
10
12.912368210378027
20
50.219316255712769
42
-0.41421356237309503
10
13.366887688050078
20
49.67764103529305
10
12.146707289582857
20
35.730915262008637
42
-0.41421356237309503
10
11.605032069163137
20
35.276395784336586
10
5.6278638806126757
20
35.799330240822528
42
-0.41421356237308471
10
5.173344402940625
20
36.341005461242233
10
6.3935248014078452
20
50.28773123452666
42
-0.41421356237310553
0
LWPOLYLINE
5
139
100
AcDbEntity
8
0
100
AcDbPolyline
90
8
70
1
43
0.0
10
-10.41825692358846
20
51.758571549136136
42
0.41421356237310025
10
-10.872776401260493
20
52.300246769555827
10
-16.849944589810963
20
52.823181226041775
42
0.41421356237309548
10
-17.391619810230672
20
52.368661748369746
10
-18.611800208697893
20
38.421935975085333
42
0.41421356237309037
10
-18.157280731025843
20
37.880260754665599
10
-12.180112542475374
20
37.357326298179657
42
0.41421356237308193
10
-11.638437322055639
20
37.811845775851701
0
LWPOLYLINE
5
140
100
AcDbEntity
8
0
100
AcDbPolyline
90
8
70
1
43
0.0
10
-228.68794744121755
20
71.980931736829945
10
-227.55492278549804
20
59.030400661637266
42
-0.41421356237309592
10
-228.00944226317003
20
58.488725441217568
10
-240.95997333836272
20
57.355700785498016
42
-0.41421356237310542
10
-241.50164855878248
20
57.810220263170045
10
-242.63467321450204
20
70.760751338362724
42
-0.41421356237307427
10
-242.18015373683002
20
71.302426558782443
10
-229.22962266163722
20
72.435451214501953
42
-0.41421356237309415
0
LWPOLYLINE
5
141
100
AcDbEntity
8
0
100
AcDbPolyline
90
8
70
1
43
0.0
10
-61.825578277688138
20
75.4107827188664
10
-64.306095191721553
20
62.64962937172367
42
-0.41421356237309503
10
-64.892313281133639
20
62.254220277688113
10
-77.653466628276348
20
64.734737191721493
42
-0.41421356237311652
10
-78.048875722311919
20
65.320955281133593
10
-75.568358808278532
20
78.08210862827633
42
-0.41421356237310525
10
-74.982140718866418
20
78.477517722311902
10
-62.220987371723709
20
75.997000808278472
42
-0.41421356237308482
0
LWPOLYLINE
5
142
100
AcDbEntity
8
0
100
AcDbPolyline
90
8
70
1
43
0.0
10
-22.865879938590304
20
56.913067792843762
10
-21.732855282870741
20
69.863598868036419
42
-0.41421356237309098
10
-21.191180062451046
20
70.318118345708456
10
-8.2406489872583535
20
69.185093689988918
42
-0.41421356237310802
10
-7.786129509586317
20
68.643418469569198
10
-8.9191541653058444
20
55.69288739437652
42
-0.41421356237308055
10
-9.4608293857255745
20
55.238367916704476
10
-22.41136046091826
20
56.371392572424035
42
-0.41421356237310841
0
LWPOLYLINE
5
143
100
AcDbEntity
8
0
100
AcDbPolyline
90
8
70
1
43
0.0
10
-94.553106222814307
20
81.764690745820175
10
-97.033623191721588
20
69.00353737172361
42
-0.41421356237308482
10
-97.619841281133688
20
68.608128277688053
10
-110.38099468965083
20
71.08864520365151
42
-0.41421350411534658
10
-110.77640372935832
20
71.674863244883099
10
-108.29588679634853
20
84.436016689650756
42
-0.41421352574784254
10
-107.70966871886642
20
84.831425722311849
10
-94.948515362427003
20
82.350908856105917
42
-0.41421354074058858
0
LWPOLYLINE
5
144
100
AcDbEntity
8
0
100
AcDbPolyline
90
8
70
1
43
0.0
10
-41.131517211749994
20
39.388336081120997
10
-39.998492556030421
20
52.338867156313725
42
-0.41421356237309037
10
-39.456817335610729
20
52.793386633985762
10
-26.506286260418026
20
51.660361978266209
42
-0.41421356237308471
10
-26.051766782745975
20
51.118686757846504
10
-27.184791438465528
20
38.168155682653797
42
-0.41421356237309243
10
-27.726466658885244
20
37.713636204981746
10
-40.67699773407795
20
38.846660860701306
42
-0.41421356237307927
0
LWPOLYLINE
5
145
100
AcDbEntity
8
0
100
AcDbPolyline
90
8
70
1
43
0.0
10
-280.87557437484224
20
29.169054574334758
10
-279.74254971912268
20
16.218523499142027
42
-0.41421356237311396
10
-280.1970691967947
20
15.676848278722382
10
-293.14760027198736
20
14.543823623002796
42
-0.41421356237311591
10
-293.68927549240703
20
14.998343100674845
10
-294.82230014812666
20
27.948874175867534
42
-0.41421356237309687
10
-294.36778067045464
20
28.490549396287221
10
-281.41724959526186
20
29.62357405200677
42
-0.41421356237311396
0
LWPOLYLINE
5
146
100
AcDbEntity
8
0
100
AcDbPolyline
90
8
70
1
43
0.0
10
-288.94532851882269
20
-22.832151129169951
10
-290.07835317454226
20
-9.8816200539772545
42
-0.41421356237311319
10
-289.62383369687018
20
-9.3399448335575386
10
-276.67330262167752
20
-8.2069201778380165
42
-0.4142135623730554
10
-276.1316274012579
20
-8.661439655510037
10
-274.99860274553828
20
-21.611970730702726
42
-0.41421356237307794
10
-275.4531222232103
20
-22.153645951122485
10
-288.40365329840296
20
-23.286670606841962
42
-0.41421356237311213
0
LWPOLYLINE
5
147
100
AcDbEntity
8
0
100
AcDbPolyline
90
8
70
1
43
0.0
10
-10.293065088947394
20
36.690321119688832
10
-9.1600404332278256
20
49.640852194881532
42
-0.41421356237310886
10
-8.6183652128081345
20
50.095371672553561
10
4.3321658623845334
20
48.962347016834045
42
-0.41421356237311446
10
4.7866853400566001
20
48.420671796414311
10
3.653660684336995
20
35.470140721221618
42
-0.41421356237309731
10
3.1119854639173283
20
35.015621243549617
10
-9.8385456112753555
20
36.148645899269134
42
-0.41421356237309764
0
LWPOLYLINE
5
148
100
AcDbEntity
8
0
100
AcDbPolyline
90
8
70
1
43
0.0
10
-210.15806270342208
20
-2.014894479885605
10
-207.67754578234232
20
-14.776047863278862
42
-0.41421350411531127
10
-208.07295482204981
20
-15.362265904510391
10
-220.83410826681742
20
-17.842782837520105
42
-0.41421354074066241
10
-221.42032631997904
20
-17.447373736438152
10
-223.9008432340124
20
-4.6862203892955048
42
-0.41421352574792003
10
-223.50543420135128
20
-4.100002311813423
10
-210.74428075658363
20
-1.6194853788037025
42
-0.41421354074059707
0
LWPOLYLINE
5
149
100
AcDbEntity
8
0
100
AcDbPolyline
90
8
70
1
43
0.0
10
-228.52182321470417
20
-6.4083983070176131
10
-227.38879855898463
20
-19.358929382210306
42
-0.41421356237309503
10
-227.84331803665665
20
-19.90060460262999
10
-240.79384911184931
20
-21.033629258349503
42
-0.41421356237313672
10
-241.33552433226899
20
-20.579109780677491
10
-242.46854898798856
20
-7.6285787054848306
42
-0.41421356237311396
10
-242.01402951031653
20
-7.0869034850651147
10
-229.06349843512385
20
-5.953878829345566
42
-0.41421356237311596
0
LWPOLYLINE
5
150
100
AcDbEntity
8
0
100
AcDbPolyline
90
8
70
1
43
0.0
10
-247.66536390328625
20
-6.1709643064957476
10
-246.53233924756654
20
-19.121495381688398
42
-0.41421356237312096
10
-246.98685872523865
20
-19.663170602108195
10
-259.93738980043145
20
-20.796195257827645
42
-0.41421356237307411
10
-260.47906502085107
20
-20.341675780155626
10
-261.61208967657069
20
-7.3911447049629349
42
-0.41421356237313833
10
-261.15757019889861
20
-6.8494694845432491
10
-248.20703912370587
20
-5.7164448288238034
42
-0.41421356237309503
0
LWPOLYLINE
5
151
100
AcDbEntity
8
0
100
AcDbPolyline
90
8
70
1
43
0.0
10
14.261056862584116
20
53.162971792525866
10
1.3105257873914258
20
54.295996448245454
42
-0.41421356237308599
10
0.85600630971939029
20
54.837671668665138
10
1.9890309654389267
20
67.788202743857809
42
-0.41421356237308421
10
2.5307061858586266
20
68.24272222152986
10
15.481237261051337
20
67.109697565810308
42
-0.41421356237309503
10
15.93575673872337
20
66.568022345390602
10
14.802732083003816
20
53.617491270197917
42
-0.41421356237308471
0
LWPOLYLINE
5
152
100
AcDbEntity
8
0
100
AcDbPolyline
90
8
70
1
43
0.0
10
-230.38110807534429
20
20.035180139497371
10
-243.33163915053703
20
18.902155483777854
42
-0.41421356237309503
10
-243.87331437095671
20
19.356674961449869
10
-245.00633902667619
20
32.30720603664264
42
-0.41421356237311058
10
-244.55181954900425
20
32.848881257062281
10
-231.60128847381151
20
33.981905912781833
42
-0.4142135623730932
10
-231.05961325339183
20
33.527386435109818
10
-229.92658859767221
20
20.576855359917094
42
-0.41421356237307688
0
LWPOLYLINE
5
153
100
AcDbEntity
8
0
100
AcDbPolyline
90
8
70
1
43
0.0
10
-249.35861707399209
20
18.37486324015444
10
-262.30914814918481
20
17.24183858443503
42
-0.41421356237308965
10
-262.85082336960443
20
17.696358062107009
10
-263.98384802532411
20
30.646889137299734
42
-0.41421356237307794
10
-263.52932854765203
20
31.188564357719422
10
-250.57879747245926
20
32.321589013438945
42
-0.41421356237307411
10
-250.03712225203958
20
31.867069535766959
10
-248.90409759632001
20
18.91653846057423
42
-0.4142135623731158
0
LWPOLYLINE
5
154
100
AcDbEntity
8
0
100
AcDbPolyline
90
8
70
1
43
0.0
10
36.915780936778035
20
22.49678840292491
10
23.96524986158536
20
23.62981305864448
42
-0.41421356237310797
10
23.510730383913305
20
24.171488279064182
10
24.64375503963284
20
37.122019354256878
42
-0.41421356237308471
10
25.185430260052577
20
37.576538831928929
10
38.135961335245256
20
36.443514176209334
42
-0.41421356237309503
10
38.590480812917306
20
35.901838955789657
10
37.457456157197804
20
22.951307880596993
42
-0.41421356237310281
0
LWPOLYLINE
5
155
100
AcDbEntity
8
0
100
AcDbPolyline
90
8
70
1
43
0.0
10
-20.609470508314764
20
-1.1545560869523186
10
-33.560001583507457
20
-0.021531431232708273
42
-0.41421356237303242
10
-34.014521061179494
20
0.5201437891868822
10
-32.881496405459998
20
13.470674864379614
42
-0.41421356237311086
10
-32.339821185040243
20
13.925194342051732
10
-19.389290109847536
20
12.792169686332125
42
-0.41421356237307599
10
-18.9347706321755
20
12.25049446591246
10
-20.067795287895077
20
-0.70003660928026579
42
-0.41421356237311713
0
LWPOLYLINE
5
156
100
AcDbEntity
8
0
100
AcDbPolyline
90
8
70
1
43
0.0
10
-260.03368102377021
20
-1.6818517430661117
10
-272.98421209896293
20
-2.8148763987856285
42
-0.41421356237309503
10
-273.5258873193826
20
-2.3603569211136488
10
-274.65891197510217
20
10.590174154079115
42
-0.41421356237307427
10
-274.20439249743015
20
11.131849374498763
10
-261.25386142223743
20
12.264874030218252
42
-0.41421356237305329
10
-260.71218620181776
20
11.810354552546336
10
-259.57916154609819
20
-1.140176522646428
42
-0.4142135623731158
0
LWPOLYLINE
5
157
100
AcDbEntity
8
0
100
AcDbPolyline
90
8
70
1
43
0.0
10
-283.75556727207987
20
-3.7572478672447218
10
-296.7060983472727
20
-4.8902725229642741
42
-0.41421356237309503
10
-297.24777356769238
20
-4.4357530452922589
10
-298.38079822341194
20
8.5147780299004694
42
-0.41421356237309503
10
-297.92627874573992
20
9.0564532503201534
10
-284.97574767054715
20
10.189477906039741
42
-0.41421356237309503
10
-284.43407245012747
20
9.734958428367726
10
-283.30104779440785
20
-3.2155726468249957
42
-0.41421356237309892
0
LWPOLYLINE
5
158
100
AcDbEntity
8
0
100
AcDbPolyline
90
8
70
1
43
0.0
10
-254.54837832073491
20
-0.70004002177075364
10
-255.68140297645445
20
12.25049105342201
42
-0.41421356237307427
10
-255.2268834987824
20
12.792166273841694
10
-242.27635242358969
20
13.925190929561248
42
-0.41421356237307422
10
-241.73467720316995
20
13.470671451889231
10
-240.60165254745044
20
0.5201403766964674
42
-0.41421356237309503
10
-241.05617202512246
20
-0.021534843723216568
10
-254.00670310031518
20
-1.154559499442843
42
-0.41421356237307416
0
LWPOLYLINE
5
159
100
AcDbEntity
8
0
100
AcDbPolyline
90
8
70
1
43
0.0
10
-151.97296137172367
20
-4.4575318082785387
10
-164.73411471886646
20
-6.9380487223119758
42
-0.41421356237309503
10
-165.32033280827852
20
-6.5426396282763832
10
-167.80084972231191
20
6.2185137188663084
42
-0.41421356237307588
10
-167.40544062827635
20
6.8047318082783903
10
-154.64428728113364
20
9.2852487223118452
42
-0.41421356237309503
10
-154.05806919172153
20
8.8898396282762704
10
-151.57755227768806
20
-3.8713137188663502
42
-0.41421356237311807
0
LWPOLYLINE
5
160
100
AcDbEntity
8
0
100
AcDbPolyline
90
8
70
1
43
0.0
10
29.799645338362719
20
-15.126166214502028
10
16.849114263170023
20
-13.993141558782421
42
-0.41421356237307294
10
16.394594785497993
20
-13.451466338362756
10
17.52761944121756
20
-0.50093526317010051
42
-0.41421356237311668
10
18.069294661637247
20
-0.046415785498048479
10
31.019825736829937
20
-1.1794404412176018
42
-0.41421356237308721
10
31.474345214501973
20
-1.7211156616372492
10
30.341320558782453
20
-14.671646736829979
42
-0.41421356237306245
0
LWPOLYLINE
5
161
100
AcDbEntity
8
0
100
AcDbPolyline
90
8
70
1
43
0.0
10
-170.67295913919673
20
-8.0924431906176153
10
-183.43411255900506
20
-10.572960058492733
42
-0.41421356237311624
10
-184.02033064841717
20
-10.177550964457147
10
-186.50084756949707
20
2.5836024189360085
42
-0.41421350411541447
10
-186.10543852978941
20
3.169820460167653
10
-173.34428512127235
20
5.6503373861310475
42
-0.4142135257478422
10
-172.75806704379025
20
5.2549283534699267
10
-170.27755005269213
20
-7.5062250800065486
42
-0.41421350411532015
0
LWPOLYLINE
5
162
100
AcDbEntity
8
0
100
AcDbPolyline
90
8
70
1
43
0.0
10
4.2987251904491863
20
-22.456508744680086
42
0.41421356237312118
10
4.8404004108688827
20
-22.001989267008035
10
5.9734250665884581
20
-9.051458191815378
42
0.41421356237307683
10
5.5189055889164118
20
-8.5097829713957047
10
-7.4316254862762854
20
-7.3767583156761063
42
0.41421356237311069
10
-7.9733007066959622
20
-7.831277793348157
10
-9.1063253624155429
20
-20.781808868540885
42
0.41421356237307189
10
-8.6518058847435206
20
-21.323484088960605
0
LWPOLYLINE
5
163
100
AcDbEntity
8
0
100
AcDbPolyline
90
8
70
1
43
0.0
10
-185.31769281023992
20
47.280568153525955
42
0.41421350411537733
10
-184.92228377053237
20
47.866786194757566
10
-187.40280069161216
20
60.627939578150801
42
0.41421356237308482
10
-187.98901878102427
20
61.023348672186337
10
-200.75017212816701
20
58.542831758152971
42
0.41421356237311235
10
-201.14558122220259
20
57.95661366874085
10
-198.66506430816909
20
45.195460321598162
42
0.41421354074057642
10
-198.07884624571088
20
44.80005117268874
0
LWPOLYLINE
5
164
100
AcDbEntity
8
0
100
AcDbPolyline
90
8
70
1
43
0.0
10
-220.12286530594446
20
1.7020218574711876
10
-232.88401865308708
20
-0.77849505656222562
42
-0.41421352574786591
10
-233.47023673056921
20
-0.38308602390110941
10
-235.95075366357901
20
12.378067420866611
42
-0.41421354074055172
10
-235.55534456249705
20
12.964285474028152
10
-222.79419121535432
20
15.444802388061539
42
-0.41421356237313739
10
-222.20797312594226
20
15.049393294025961
10
-219.72745621190893
20
2.2882399468832788
42
-0.41421356237310269
0
LWPOLYLINE
5
165
100
AcDbEntity
8
0
100
AcDbPolyline
90
8
70
1
43
0.0
10
-201.42286746580572
20
5.336933193651987
10
-214.18402081294843
20
2.8564162796185144
42
-0.41421356237309503
10
-214.77023890236052
20
3.251825373654178
10
-217.25075581639388
20
16.012978720796806
42
-0.41421356237311291
10
-216.85534672235835
20
16.599196810208916
10
-204.09419333896508
20
19.079713731288752
42
-0.41421350411535368
10
-203.50797529773348
20
18.684304691581254
10
-201.02745837177011
20
5.9231512830640431
42
-0.41421356237310269
0
LWPOLYLINE
5
166
100
AcDbEntity
8
0
100
AcDbPolyline
90
8
70
1
43
0.0
10
-182.72286962566696
20
8.9718445298327865
10
-195.48402297280958
20
6.4913276157994693
42
-0.41421356237313739
10
-196.0702410622217
20
6.8867367098349419
10
-198.55075798330151
20
19.647890093228114
42
-0.4142135041154052
10
-198.15534894359402
20
20.234108134459767
10
-185.39419553507696
20
22.71462506042311
42
-0.41421356237311652
10
-184.80797744566487
20
22.31921596638756
10
-182.32746053163143
20
9.5580626192448257
42
-0.41421356237307205
0
LWPOLYLINE
5
167
100
AcDbEntity
8
0
100
AcDbPolyline
90
8
70
1
43
0.0
10
-110.11702954849808
20
-6.5905886423316318
10
-122.87818298396908
20
-4.1100716614943886
42
-0.41421350411535096
10
-123.27359202367657
20
-3.5238536202627539
10
-120.79307509066673
20
9.2372998245049267
42
-0.41421350411534247
10
-120.20685704943519
20
9.6327088642124625
10
-107.44570366604195
20
7.1521919431326531
42
-0.41421356237309503
10
-107.05029457200641
20
6.565973853720557
10
-109.53081145014224
20
-6.1951795640933662
42
-0.41421350411531455
0
LWPOLYLINE
5
168
100
AcDbEntity
8
0
100
AcDbPolyline
90
8
70
1
43
0.0
10
-28.083834361063303
20
-19.121491969198026
10
-26.95080970534373
20
-6.1709608940052982
42
-0.41421356237315865
10
-26.409134484924035
20
-5.7164414163331756
10
-13.458603409731341
20
-6.8494660720527722
42
-0.4142135623731224
10
-13.004083932059292
20
-7.3911412924725184
10
-14.137108587778808
20
-20.341672367665179
42
-0.41421356237306889
10
-14.678783808198554
20
-20.796191845337226
10
-27.629314883391256
20
-19.663167189617617
42
-0.41421356237303791
0
LWPOLYLINE
5
169
100
AcDbEntity
8
0
100
AcDbPolyline
90
8
70
1
43
0.0
10
-88.350296731867701
20
2.9310625175397931
10
-90.830813645901117
20
-9.8300908296029021
42
-0.41421356237309503
10
-91.41703173531323
20
-10.225499923638459
10
-104.17818508245585
20
-7.7449830096051464
42
-0.4142135623731481
10
-104.57359417649143
20
-7.1587649201929437
10
-102.09307726245805
20
5.6023884269496849
42
-0.41421356237309248
10
-101.50685917304594
20
5.9977975209852374
10
-88.745705825903286
20
3.5172806069518114
42
-0.41421356237307388
0
LWPOLYLINE
5
170
100
AcDbEntity
8
0
100
AcDbPolyline
90
8
70
1
43
0.0
10
-69.65029889172898
20
-0.70384881864104187
10
-72.130815805762325
20
-13.465002165783753
42
-0.4142135623730861
10
-72.717033895174524
20
-13.860411259819365
10
-85.478187242317205
20
-11.379894345785946
42
-0.41421354074054351
10
-85.873596343399157
20
-10.793676292624435
10
-83.393079422319346
20
1.9674770907688468
42
-0.4142135623730836
10
-82.80686133290726
20
2.3628861848044025
10
-70.045707985764537
20
-0.11763072922892803
42
-0.41421356237309503
0
LWPOLYLINE
5
171
100
AcDbEntity
8
0
100
AcDbPolyline
90
8
70
1
43
0.0
10
-50.950301051590294
20
-4.3387601548218768
10
-53.430817965623604
20
-17.099913501964586
42
-0.4142135623730861
10
-54.017036055035788
20
-17.4953225960002
10
-66.778189402178484
20
-15.014805681966708
42
-0.41421356237306317
10
-67.173598496214055
20
-14.428587592554685
10
-64.693081582180668
20
-1.6674342454119171
42
-0.4142135623730836
10
-64.106863492768568
20
-1.2720251513763614
10
-51.345710145625844
20
-3.7525420654097719
42
-0.41421356237309503
0
LWPOLYLINE
5
172
100
AcDbEntity
8
0
100
AcDbPolyline
90
8
70
1
43
0.0
10
-32.147624620641345
20
-7.6285752929943484
10
-33.280649276360919
20
-20.579106368187073
42
-0.4142135623731098
10
-33.822324496780588
20
-21.033625845859127
10
-46.772855571973288
20
-19.900601190139529
42
-0.41421356237307938
10
-47.227375049645339
20
-19.358925969719856
10
-46.094350393925758
20
-6.4083948945271292
42
-0.41421356237307044
10
-45.552675173506081
20
-5.9538754168551478
10
-32.602144098313381
20
-7.0869000725746893
42
-0.41421356237307938
0
LWPOLYLINE
5
173
100
AcDbEntity
8
0
100
AcDbPolyline
90
8
70
1
43
0.0
10
-161.26506867404999
20
52.465282921294119
10
-163.74558554897146
20
65.226436377352996
42
-0.41421350411532176
10
-163.350176509264
20
65.812654418584515
10
-150.5890230644963
20
68.29317135159431
42
-0.41421350411534913
10
-150.00280502326473
20
67.897762311886794
10
-147.52228809025499
20
55.136608867119143
42
-0.41421354074059086
10
-147.91769719133691
20
54.550390813957605
10
-160.67885052718844
20
52.069873841835886
42
-0.41421352574789366
0
LWPOLYLINE
5
174
100
AcDbEntity
8
0
100
AcDbPolyline
90
8
70
1
43
0.0
10
-182.05017428802824
20
62.177743094333735
10
-169.28902094088556
20
64.658260008367165
42
-0.41421356237311652
10
-168.70280285147345
20
64.26285091433158
10
-166.22228593744006
20
51.50169756718887
42
-0.41421356237312879
10
-166.61769503147568
20
50.915479477776785
10
-179.37884837861833
20
48.434962563743397
42
-0.41421356237307361
10
-179.96506646803041
20
48.830371657778961
10
-182.4455833891102
20
61.591525041172218
42
-0.41421354074051936
0
LWPOLYLINE
5
175
100
AcDbEntity
8
0
100
AcDbPolyline
90
8
70
1
43
0.0
10
-189.16383034487112
20
64.41143273280781
10
-191.83515624344989
20
78.154213274107548
42
-0.41421350411535213
10
-191.4397472037424
20
78.740431315339123
10
-185.54998407714919
20
79.885285310336926
42
-0.4142135989983099
10
-184.96376592636273
20
79.489876228231367
10
-182.29244007957595
20
65.747095687512811
42
-0.41421356237309503
10
-182.68784917361154
20
65.160877598100697
10
-188.57761219128849
20
64.016023563991041
42
-0.41421358400559788
0
LWPOLYLINE
5
176
100
AcDbEntity
8
0
100
AcDbPolyline
90
8
70
1
43
0.0
10
-218.6624738541762
20
60.714910564846264
10
-221.14299072909776
20
73.47606402090517
42
-0.41421350411544572
10
-220.74758168939013
20
74.062282062136802
10
-207.98642828087304
20
76.542798988100159
42
-0.41421356237309503
10
-207.40021019146093
20
76.147389894064602
10
-204.91969327038117
20
63.386236510671381
42
-0.41421350411533292
10
-205.31510231008866
20
62.800018469439763
10
-218.07625574356504
20
60.319501478341671
42
-0.41421350411538344
0
LWPOLYLINE
5
177
100
AcDbEntity
8
0
100
AcDbPolyline
90
8
70
1
43
0.0
10
-8.6179349367305456
20
11.849798217873051
10
4.3325961384621454
20
10.716773562153515
42
-0.41421356237308327
10
4.7871156161341943
20
10.17509834173385
10
3.6540909604146101
20
-2.7754327334588771
42
-0.41421356237311668
10
3.1124157399949226
20
-3.2299522111309287
10
-9.838115335197763
20
-2.0969275554113964
42
-0.41421356237308066
10
-10.292634812869812
20
-1.555252334991728
10
-9.1596101571502313
20
11.395278740200999
42
-0.41421356237311729
0
LINE
5
178
100
AcDbEntity
8
0
100
AcDbLine
10
-2.1765403471471667
20
-21.889996416820345
30
0
11
-0.95635994867993679
21
-7.9432706435359055
31
0
0
CIRCLE
5
179
100
AcDbEntity
8
0
100
AcDbCircle
10
-1.5664501479135517
20
-14.916633530178125
30
0
40
2.0000000000000009
210
0
220
0
230
1
0
ENDSEC
0
SECTION
2
OBJECTS
0
DICTIONARY
5
C
100
AcDbDictionary
3
ACAD_GROUP
350
D
3
ACAD_MLINESTYLE
350
17
0
DICTIONARY
5
D
100
AcDbDictionary
0
DICTIONARY
5
1A
330
C
100
AcDbDictionary
0
DICTIONARY
5
17
100
AcDbDictionary
0
ENDSEC
0
EOF
